<svg width="31" height="30" viewBox="0 0 31 30" fill="none" xmlns="http://www.w3.org/2000/svg">
<path fill-rule="evenodd" clip-rule="evenodd" d="M2.54541 14.4615C2.70527 7.46139 8.49868 1.9099 15.5 2.04793C22.5012 1.9099 28.2946 7.46139 28.4545 14.4615C28.2946 21.4616 22.5012 27.0131 15.5 26.8751C13.8588 26.8784 12.231 26.5794 10.6981 25.9932L7.68943 27.8725C7.60365 27.9261 7.50452 27.9545 7.40337 27.9545C7.10526 27.9545 6.86357 27.7128 6.86357 27.4148V23.7015C4.14165 21.4015 2.56368 18.0248 2.54541 14.4615ZM23.3375 10.7483C23.5733 10.6198 23.8678 10.6842 24.0284 10.8994C24.1899 11.1136 24.1697 11.4138 23.9809 11.6043L17.5037 18.0809C17.3042 18.2804 16.9848 18.2926 16.7707 18.109L13.2751 15.1136L7.66151 18.1738C7.45196 18.2874 7.19271 18.2502 7.02365 18.0821C6.81217 17.872 6.81116 17.5303 7.02132 17.3189L13.4986 10.8422C13.698 10.6428 14.0174 10.6306 14.2316 10.8141L17.7239 13.8085L23.3375 10.7483Z" fill="#E1BA80"/>
</svg>
