<svg width="19" height="18" viewBox="0 0 19 18" fill="none" xmlns="http://www.w3.org/2000/svg">
<path fill-rule="evenodd" clip-rule="evenodd" d="M1.79785 8.67691C1.89377 4.47686 5.36981 1.14596 9.57058 1.22878C13.7713 1.14596 17.2474 4.47686 17.3433 8.67694C17.2474 12.877 13.7713 16.2079 9.57058 16.1251C8.58587 16.127 7.60921 15.9477 6.68948 15.5959L4.88426 16.7235C4.8328 16.7557 4.77332 16.7727 4.71262 16.7727C4.53376 16.7727 4.38875 16.6277 4.38875 16.4489V14.2209C2.7556 12.8409 1.80881 10.8149 1.79785 8.67691ZM14.2731 6.44899C14.4146 6.37188 14.5913 6.41052 14.6877 6.53967C14.7846 6.66815 14.7724 6.84827 14.6592 6.96258L10.7728 10.8486C10.6532 10.9682 10.4615 10.9756 10.333 10.8654L8.23568 9.06814L4.86751 10.9043C4.74178 10.9725 4.58623 10.9501 4.48479 10.8493C4.35791 10.7232 4.3573 10.5182 4.4834 10.3913L8.36976 6.50534C8.48942 6.38566 8.68106 6.37834 8.80956 6.48849L10.9049 8.28512L14.2731 6.44899Z" fill="#E1BA80"/>
</svg>
