<svg width="31" height="30" viewBox="0 0 31 30" fill="none" xmlns="http://www.w3.org/2000/svg">
<path fill-rule="evenodd" clip-rule="evenodd" d="M2.5459 14.4615C2.70576 7.46139 8.49917 1.9099 15.5004 2.04793C22.5017 1.9099 28.2951 7.46139 28.455 14.4615C28.2951 21.4616 22.5017 27.0131 15.5004 26.8751C13.8593 26.8784 12.2315 26.5794 10.6986 25.9932L7.68992 27.8725C7.60414 27.9261 7.50501 27.9545 7.40385 27.9545C7.10575 27.9545 6.86406 27.7128 6.86406 27.4148V23.7015C4.14214 21.4015 2.56417 18.0248 2.5459 14.4615ZM23.338 10.7483C23.5738 10.6198 23.8683 10.6842 24.0289 10.8994C24.1904 11.1136 24.1702 11.4138 23.9814 11.6043L17.5042 18.0809C17.3047 18.2804 16.9853 18.2926 16.7712 18.109L13.2756 15.1136L7.66199 18.1738C7.45244 18.2874 7.1932 18.2502 7.02413 18.0821C6.81266 17.872 6.81165 17.5303 7.02181 17.3189L13.4991 10.8422C13.6985 10.6428 14.0179 10.6306 14.2321 10.8141L17.7244 13.8085L23.338 10.7483Z" fill="#505050"/>
</svg>
