<svg width="24" height="24" viewBox="0 0 24 24" fill="none" xmlns="http://www.w3.org/2000/svg">
<path d="M18.4638 15.0328C18.4345 15.0183 18.0603 14.8001 17.3414 14.3783C16.6226 13.9565 16.1677 13.7019 15.977 13.6146C15.9037 13.571 15.823 13.5419 15.7349 13.5274C15.6616 13.4983 15.5809 13.4765 15.4929 13.4619C15.4782 13.4619 15.4635 13.4619 15.4489 13.4619C15.4489 13.4619 15.4415 13.4619 15.4269 13.4619C15.2801 13.4619 15.1481 13.4983 15.0307 13.571C14.9134 13.6292 14.8107 13.7092 14.7226 13.811C14.6053 13.971 14.4072 14.1892 14.1284 14.4655C13.8497 14.7274 13.659 14.9092 13.5563 15.011C13.5416 15.0255 13.5269 15.0401 13.5122 15.0546C13.4976 15.0692 13.4829 15.0765 13.4682 15.0765C13.4536 15.0765 13.3875 15.0474 13.2702 14.9892C13.1528 14.931 13.0721 14.8874 13.0281 14.8583C12.4853 14.5528 11.9791 14.1892 11.5096 13.7674C11.0548 13.3455 10.6514 12.9237 10.2992 12.5019C9.9618 12.0801 9.69039 11.7019 9.48499 11.3674C9.26492 11.0328 9.13288 10.8146 9.08886 10.7128C9.07419 10.6983 9.06686 10.6837 9.06686 10.6692C9.06686 10.6546 9.06686 10.6401 9.06686 10.6255C9.08153 10.5965 9.0962 10.5746 9.11087 10.5601C9.14021 10.531 9.16955 10.5092 9.19889 10.4946C9.25758 10.4365 9.31627 10.3783 9.37495 10.3201C9.44831 10.2474 9.52166 10.1746 9.59502 10.1019L9.79308 9.92736C9.86644 9.85463 9.93246 9.77463 9.99114 9.68736C10.0645 9.60009 10.1305 9.51282 10.1892 9.42554V9.40373L10.2552 9.31645C10.2992 9.24372 10.3286 9.16373 10.3433 9.07645C10.3726 8.98918 10.3873 8.89463 10.3873 8.79282C10.3873 8.72009 10.3799 8.64736 10.3653 8.57463C10.3506 8.50191 10.3286 8.43645 10.2992 8.37827C10.2846 8.33463 10.1525 7.92736 9.90312 7.15645C9.6537 6.371 9.50699 5.92009 9.46298 5.80373C9.37495 5.51282 9.25758 5.29463 9.11087 5.14918C8.96415 5.00373 8.78077 4.92373 8.5607 4.90918H8.40665C8.30395 4.90918 8.03253 4.931 7.59239 4.97463C7.16693 5.00373 6.82949 5.08373 6.58007 5.21463C6.33066 5.34554 6.00789 5.65827 5.61177 6.15282C5.23032 6.63282 5.00291 7.32372 4.92956 8.22554C4.8562 9.04009 4.98091 9.811 5.30367 10.5383C5.62644 11.2655 5.88319 11.7819 6.07391 12.0874L6.11793 12.1746C6.49938 12.8292 6.90284 13.4474 7.32831 14.0292C7.75378 14.5965 8.20125 15.1201 8.67073 15.6001C9.14021 16.0801 9.62436 16.5092 10.1232 16.8874C10.622 17.2655 11.1355 17.5855 11.6637 17.8474C12.6613 18.3419 13.4242 18.6692 13.9524 18.8292C14.4952 18.9746 14.906 19.0546 15.1848 19.0692C15.2581 19.0837 15.3315 19.091 15.4048 19.091C15.4929 19.091 15.5736 19.091 15.6469 19.091C15.6763 19.091 15.6983 19.091 15.7129 19.091C15.7423 19.091 15.7643 19.091 15.779 19.091H15.889C16.2411 19.091 16.7399 18.9455 17.3855 18.6546C18.031 18.3492 18.4711 17.9565 18.7059 17.4765C18.8673 17.0983 18.9773 16.7274 19.036 16.3637C19.1093 15.9855 19.1093 15.7165 19.036 15.5565C18.9626 15.4401 18.8746 15.3383 18.7719 15.251C18.6839 15.1637 18.5812 15.0983 18.4638 15.0546V15.0328Z" fill="#E1BA80"/>
</svg>
