<svg width="20" height="20" viewBox="0 0 20 20" fill="none" xmlns="http://www.w3.org/2000/svg">
<path d="M15.3863 12.5273C15.3619 12.5152 15.0501 12.3333 14.451 11.9818C13.852 11.6303 13.473 11.4182 13.314 11.3455C13.2529 11.3091 13.1856 11.2849 13.1123 11.2727C13.0512 11.2485 12.9839 11.2303 12.9106 11.2182C12.8983 11.2182 12.8861 11.2182 12.8739 11.2182C12.8739 11.2182 12.8678 11.2182 12.8555 11.2182C12.7333 11.2182 12.6233 11.2485 12.5254 11.3091C12.4276 11.3576 12.342 11.4242 12.2687 11.5091C12.1709 11.6424 12.0058 11.8242 11.7735 12.0545C11.5412 12.2727 11.3823 12.4242 11.2967 12.5091C11.2845 12.5212 11.2723 12.5333 11.26 12.5455C11.2478 12.5576 11.2356 12.5636 11.2234 12.5636C11.2111 12.5636 11.1561 12.5394 11.0583 12.4909C10.9605 12.4424 10.8933 12.4061 10.8566 12.3818C10.4042 12.1273 9.98242 11.8242 9.59119 11.4727C9.21218 11.1212 8.87596 10.7697 8.58254 10.4182C8.30134 10.0667 8.07516 9.75152 7.90399 9.47273C7.7206 9.19394 7.61057 9.01212 7.57389 8.92728C7.56166 8.91515 7.55555 8.90303 7.55555 8.89091C7.55555 8.87879 7.55555 8.86667 7.55555 8.85455C7.56778 8.83031 7.58 8.81212 7.59223 8.8C7.61668 8.77576 7.64113 8.75758 7.66558 8.74546C7.71449 8.69697 7.76339 8.64849 7.8123 8.6C7.87343 8.5394 7.93456 8.47879 7.99569 8.41818L8.16074 8.27273C8.22187 8.21212 8.27689 8.14546 8.32579 8.07273C8.38692 8 8.44194 7.92728 8.49084 7.85455V7.83637L8.54586 7.76364C8.58254 7.70303 8.60699 7.63637 8.61922 7.56364C8.64367 7.49091 8.65589 7.41212 8.65589 7.32728C8.65589 7.26667 8.64978 7.20606 8.63756 7.14546C8.62533 7.08485 8.60699 7.03031 8.58254 6.98182C8.57031 6.94546 8.46028 6.60606 8.25243 5.96364C8.04459 5.30909 7.92233 4.93334 7.88565 4.83637C7.8123 4.59394 7.71449 4.41212 7.59223 4.29091C7.46997 4.1697 7.31714 4.10303 7.13375 4.09091H7.00538C6.9198 4.09091 6.69361 4.10909 6.32683 4.14546C5.97228 4.1697 5.69107 4.23637 5.48323 4.34546C5.27539 4.45455 5.00642 4.71515 4.67631 5.12728C4.35844 5.52728 4.16893 6.10303 4.1078 6.85455C4.04667 7.53334 4.15059 8.17576 4.41956 8.78182C4.68854 9.38788 4.90249 9.81818 5.06143 10.0727L5.09811 10.1455C5.41599 10.6909 5.75221 11.2061 6.10676 11.6909C6.46132 12.1636 6.83421 12.6 7.22545 13C7.61668 13.4 8.02014 13.7576 8.43582 14.0727C8.85151 14.3879 9.27942 14.6545 9.71956 14.8727C10.5509 15.2849 11.1867 15.5576 11.6268 15.6909C12.0792 15.8121 12.4215 15.8788 12.6538 15.8909C12.7149 15.903 12.7761 15.9091 12.8372 15.9091C12.9106 15.9091 12.9778 15.9091 13.0389 15.9091C13.0634 15.9091 13.0817 15.9091 13.094 15.9091C13.1184 15.9091 13.1367 15.9091 13.149 15.9091H13.2407C13.5341 15.9091 13.9498 15.7879 14.4877 15.5455C15.0257 15.2909 15.3924 14.9636 15.5881 14.5636C15.7226 14.2485 15.8142 13.9394 15.8632 13.6364C15.9243 13.3212 15.9243 13.097 15.8632 12.9636C15.802 12.8667 15.7287 12.7818 15.6431 12.7091C15.5697 12.6364 15.4841 12.5818 15.3863 12.5455V12.5273Z" fill="white"/>
</svg>
