<svg width="24" height="24" viewBox="0 0 24 24" fill="none" xmlns="http://www.w3.org/2000/svg">
<path d="M18.4638 15.0327C18.4345 15.0181 18.0603 14.8 17.3414 14.3781C16.6226 13.9563 16.1677 13.7018 15.977 13.6145C15.9037 13.5709 15.823 13.5418 15.7349 13.5272C15.6616 13.4981 15.5809 13.4763 15.4929 13.4618C15.4782 13.4618 15.4635 13.4618 15.4489 13.4618C15.4489 13.4618 15.4415 13.4618 15.4269 13.4618C15.2801 13.4618 15.1481 13.4981 15.0307 13.5709C14.9134 13.6291 14.8107 13.7091 14.7226 13.8109C14.6053 13.9709 14.4072 14.1891 14.1284 14.4654C13.8497 14.7272 13.659 14.9091 13.5563 15.0109C13.5416 15.0254 13.5269 15.04 13.5122 15.0545C13.4976 15.0691 13.4829 15.0763 13.4682 15.0763C13.4536 15.0763 13.3875 15.0472 13.2702 14.9891C13.1528 14.9309 13.0721 14.8872 13.0281 14.8581C12.4853 14.5527 11.9791 14.1891 11.5096 13.7672C11.0548 13.3454 10.6514 12.9236 10.2992 12.5018C9.9618 12.08 9.69039 11.7018 9.48499 11.3672C9.26492 11.0327 9.13288 10.8145 9.08886 10.7127C9.07419 10.6981 9.06686 10.6836 9.06686 10.6691C9.06686 10.6545 9.06686 10.64 9.06686 10.6254C9.08153 10.5963 9.0962 10.5745 9.11087 10.56C9.14021 10.5309 9.16955 10.5091 9.19889 10.4945C9.25758 10.4363 9.31627 10.3781 9.37495 10.32C9.44831 10.2472 9.52166 10.1745 9.59502 10.1018L9.79308 9.92724C9.86644 9.85451 9.93246 9.77451 9.99114 9.68724C10.0645 9.59997 10.1305 9.51269 10.1892 9.42542V9.4036L10.2552 9.31633C10.2992 9.2436 10.3286 9.1636 10.3433 9.07633C10.3726 8.98906 10.3873 8.89451 10.3873 8.79269C10.3873 8.71997 10.3799 8.64724 10.3653 8.57451C10.3506 8.50179 10.3286 8.43633 10.2992 8.37815C10.2846 8.33451 10.1525 7.92724 9.90312 7.15633C9.6537 6.37088 9.50699 5.91997 9.46298 5.8036C9.37495 5.51269 9.25758 5.29451 9.11087 5.14906C8.96415 5.0036 8.78077 4.9236 8.5607 4.90906H8.40665C8.30395 4.90906 8.03253 4.93088 7.59239 4.97451C7.16693 5.0036 6.82949 5.0836 6.58007 5.21451C6.33066 5.34542 6.00789 5.65815 5.61177 6.15269C5.23032 6.63269 5.00291 7.3236 4.92956 8.22542C4.8562 9.03997 4.98091 9.81088 5.30367 10.5381C5.62644 11.2654 5.88319 11.7818 6.07391 12.0872L6.11793 12.1745C6.49938 12.8291 6.90284 13.4472 7.32831 14.0291C7.75378 14.5963 8.20125 15.12 8.67073 15.6C9.14021 16.08 9.62436 16.5091 10.1232 16.8872C10.622 17.2654 11.1355 17.5854 11.6637 17.8472C12.6613 18.3418 13.4242 18.6691 13.9524 18.8291C14.4952 18.9745 14.906 19.0545 15.1848 19.0691C15.2581 19.0836 15.3315 19.0909 15.4048 19.0909C15.4929 19.0909 15.5736 19.0909 15.6469 19.0909C15.6763 19.0909 15.6983 19.0909 15.7129 19.0909C15.7423 19.0909 15.7643 19.0909 15.779 19.0909H15.889C16.2411 19.0909 16.7399 18.9454 17.3855 18.6545C18.031 18.3491 18.4711 17.9563 18.7059 17.4763C18.8673 17.0981 18.9773 16.7272 19.036 16.3636C19.1093 15.9854 19.1093 15.7163 19.036 15.5563C18.9626 15.44 18.8746 15.3381 18.7719 15.2509C18.6839 15.1636 18.5812 15.0981 18.4638 15.0545V15.0327Z" fill="#505050"/>
</svg>
