<svg width="30" height="30" viewBox="0 0 30 30" fill="none" xmlns="http://www.w3.org/2000/svg">
<path d="M2.50304 14.2258L8.47302 16.454L10.7838 23.8853C10.9316 24.3612 11.5136 24.5372 11.8999 24.2213L15.2277 21.5085C15.5765 21.2243 16.0734 21.2101 16.4379 21.4747L22.44 25.8324C22.8533 26.1327 23.4387 25.9063 23.5424 25.4069L27.9392 4.25723C28.0524 3.71175 27.5164 3.2567 26.997 3.45758L2.49605 12.9093C1.89141 13.1425 1.89668 13.9985 2.50304 14.2258ZM10.4114 15.2678L22.0789 8.08176C22.2886 7.95299 22.5044 8.23652 22.3243 8.40355L12.6952 17.3543C12.3567 17.6693 12.1384 18.091 12.0766 18.5486L11.7485 20.9794C11.7051 21.304 11.2492 21.3362 11.1596 21.0221L9.89811 16.5895C9.75362 16.0839 9.96418 15.5439 10.4114 15.2678Z" fill="#E1BA80"/>
</svg>
