<svg width="18" height="18" viewBox="0 0 18 18" fill="none" xmlns="http://www.w3.org/2000/svg">
<path d="M1.50212 8.53541L5.08411 9.87232L6.47056 14.3311C6.55927 14.6167 6.90847 14.7222 7.14025 14.5327L9.13691 12.905C9.34621 12.7345 9.64432 12.726 9.86304 12.8848L13.4643 15.4994C13.7123 15.6796 14.0635 15.5437 14.1257 15.2441L16.7638 2.55428C16.8317 2.227 16.5101 1.95397 16.1985 2.0745L1.49792 7.74554C1.13514 7.88545 1.1383 8.39907 1.50212 8.53541ZM6.24712 9.16065L13.2477 4.849C13.3735 4.77174 13.5029 4.94186 13.3949 5.04208L7.6174 10.4125C7.41432 10.6016 7.28333 10.8545 7.24622 11.1291L7.04942 12.5876C7.02335 12.7823 6.7498 12.8017 6.69607 12.6132L5.93916 9.95362C5.85247 9.65028 5.9788 9.32626 6.24712 9.16065Z" fill="#E1BA80"/>
</svg>
