<svg width="30" height="30" viewBox="0 0 30 30" fill="none" xmlns="http://www.w3.org/2000/svg">
<path d="M2.50353 14.2256L8.47351 16.4538L10.7843 23.8852C10.9321 24.3611 11.5141 24.537 11.9004 24.2212L15.2282 21.5084C15.577 21.2241 16.0739 21.21 16.4384 21.4746L22.4405 25.8322C22.8538 26.1326 23.4392 25.9062 23.5429 25.4068L27.9397 4.2571C28.0529 3.71163 27.5169 3.25658 26.9975 3.45746L2.49653 12.9092C1.8919 13.1424 1.89717 13.9984 2.50353 14.2256ZM10.4119 15.2677L22.0794 8.08164C22.2891 7.95287 22.5049 8.2364 22.3248 8.40343L12.6957 17.3542C12.3572 17.6692 12.1389 18.0909 12.077 18.5485L11.749 20.9793C11.7056 21.3038 11.2497 21.3361 11.1601 21.022L9.8986 16.5893C9.75411 16.0838 9.96467 15.5437 10.4119 15.2677Z" fill="#505050"/>
</svg>
