<svg width="31" height="30" viewBox="0 0 31 30" fill="none" xmlns="http://www.w3.org/2000/svg">
<path fill-rule="evenodd" clip-rule="evenodd" d="M27.6254 7.80185L27.6177 7.77095C26.9927 5.24409 24.1747 2.53263 21.5869 1.96853L21.5577 1.96252C17.372 1.16402 13.128 1.16402 8.94317 1.96252L8.91312 1.96853C6.32616 2.53263 3.50824 5.24409 2.88232 7.77095L2.87545 7.80185C2.10271 11.3307 2.10271 14.9093 2.87545 18.4382L2.88232 18.4691C3.48154 20.8881 6.08962 23.475 8.58085 24.1864V27.0071C8.58085 28.028 9.82496 28.5294 10.5324 27.7927L13.3903 24.822C14.0101 24.8567 14.6303 24.876 15.2504 24.876C17.3574 24.876 19.4653 24.6769 21.5577 24.2776L21.5869 24.2716C24.1747 23.7075 26.9927 20.996 27.6177 18.4692L27.6254 18.4383C28.3982 14.9093 28.3982 11.3307 27.6254 7.80185ZM25.3639 17.9265C24.9466 19.575 22.807 21.6244 21.107 22.0031C18.8814 22.4263 16.6382 22.6072 14.3973 22.5451C14.3527 22.5439 14.3098 22.5612 14.2788 22.5931L12.1921 24.7352L9.97263 27.013C9.81036 27.1822 9.52531 27.0671 9.52531 26.8336V22.1609C9.52531 22.0837 9.47018 22.0181 9.39437 22.0033L9.39308 22.003C7.69305 21.6244 5.55428 19.5749 5.13615 17.9264C4.44068 14.7367 4.44068 11.5032 5.13615 8.31349C5.55428 6.66498 7.69305 4.61551 9.39308 4.23686C13.28 3.49761 17.2209 3.49761 21.107 4.23686C22.8078 4.61551 24.9466 6.66498 25.3639 8.31349C26.0601 11.5033 26.0601 14.7368 25.3639 17.9265ZM18.9483 20.0832C18.8641 20.0576 18.7811 20.0347 18.6996 20.0123L18.6995 20.0123L18.6995 20.0122L18.6995 20.0122C18.5281 19.965 18.3633 19.9196 18.2066 19.8545C15.8097 18.8601 13.6038 17.5772 11.8564 15.6106C10.8628 14.4922 10.0851 13.2297 9.42764 11.8935C9.1481 11.3254 8.90798 10.7372 8.66828 10.1502L8.58536 9.94725C8.34117 9.3507 8.70084 8.7344 9.07957 8.28492C9.43494 7.86309 9.89223 7.54026 10.3875 7.30234C10.774 7.11662 11.1553 7.22369 11.4376 7.55133C12.0479 8.25968 12.6085 9.00425 13.0624 9.82533C13.3416 10.3304 13.265 10.9477 12.7591 11.2914C12.6603 11.3585 12.5685 11.435 12.4769 11.5114L12.4769 11.5114L12.4769 11.5115L12.4769 11.5115L12.4766 11.5117L12.4765 11.5117C12.4542 11.5303 12.4319 11.5489 12.4096 11.5673C12.3091 11.65 12.2146 11.7336 12.1457 11.8455C12.0198 12.0504 12.0138 12.292 12.0949 12.5147C12.7187 14.2292 13.7703 15.5623 15.4959 16.2804L15.5697 16.3114C15.8217 16.4177 16.0777 16.5257 16.3674 16.4919C16.7122 16.4516 16.9061 16.1928 17.1011 15.9323C17.2075 15.7903 17.3143 15.6478 17.446 15.54C17.8109 15.2416 18.2772 15.2377 18.6703 15.4864C19.0634 15.7352 19.4446 16.0024 19.8234 16.2723L19.9 16.3269C20.246 16.5731 20.5891 16.8172 20.9085 17.0985C21.2383 17.389 21.3519 17.77 21.1662 18.1642C20.8261 18.8861 20.3314 19.4867 19.6178 19.8701C19.4799 19.944 19.3238 19.9838 19.1661 20.0239L19.166 20.0239L19.1657 20.024L19.1656 20.024C19.093 20.0425 19.02 20.0611 18.9483 20.0832ZM21.519 11.745C20.9672 8.64548 18.3921 6.56484 15.257 6.477C15.2394 6.47693 15.2218 6.47665 15.2042 6.47636L15.2041 6.47636H15.2041H15.2041C15.161 6.47567 15.1179 6.47497 15.075 6.47735C14.8527 6.48928 14.6557 6.67517 14.6973 6.90862C14.7442 7.17166 15.0086 7.19832 15.2266 7.2203L15.2643 7.22416C15.3746 7.23572 15.4851 7.24528 15.5957 7.25483C15.8406 7.27599 16.0855 7.29715 16.3265 7.34016C18.6512 7.75477 20.5135 9.68696 20.838 12.0224C20.8871 12.3753 20.9112 12.7318 20.9354 13.088L20.9354 13.0881L20.9354 13.0881C20.9415 13.1785 20.9477 13.2688 20.9542 13.3591C20.9705 13.5845 21.0836 13.7948 21.3349 13.7918C21.5782 13.7888 21.7059 13.5746 21.6883 13.3491L21.6731 13.151C21.6373 12.6803 21.6014 12.2081 21.519 11.745ZM20.0214 12.6534C20.0201 12.6633 20.019 12.6766 20.0176 12.6923C20.0136 12.7388 20.0077 12.8066 19.9906 12.8714C19.9074 13.1861 19.4302 13.2255 19.3203 12.9079C19.2877 12.8136 19.2828 12.7063 19.2827 12.6049C19.2816 11.9408 19.1372 11.2775 18.8024 10.6997C18.4582 10.1059 17.9323 9.60671 17.3155 9.30465C16.9425 9.12203 16.5391 9.00852 16.1303 8.94086C16.0191 8.92248 15.9071 8.90858 15.7951 8.89468L15.795 8.89467C15.7272 8.88625 15.6593 8.87782 15.5916 8.8684C15.374 8.83818 15.2578 8.69951 15.2681 8.48512C15.2777 8.28421 15.4246 8.1397 15.6435 8.15207C16.363 8.19294 17.058 8.34843 17.6976 8.68715C18.9984 9.376 19.7414 10.4633 19.9583 11.9152C19.9618 11.9388 19.9661 11.9622 19.9704 11.9857C19.978 12.0278 19.9857 12.0698 19.9889 12.1122C19.9975 12.2268 20.0039 12.3415 20.0113 12.4743L20.0114 12.4758C20.0145 12.5314 20.0177 12.5902 20.0214 12.6534ZM17.6417 12.1964C17.6688 12.4369 17.8091 12.5821 18.0714 12.5774C18.1909 12.5693 18.3133 12.4864 18.3517 12.3211C18.3734 12.2275 18.3644 12.1245 18.3559 12.0264L18.355 12.0168C18.2311 10.5858 17.3623 9.95743 16.1468 9.86968C15.9523 9.8556 15.7791 9.99452 15.7494 10.1725C15.7166 10.3681 15.8319 10.5369 16.0403 10.588C16.1303 10.61 16.222 10.6184 16.3138 10.6268C16.4179 10.6363 16.5223 10.6458 16.6245 10.6753C16.776 10.719 16.9206 10.7867 17.0482 10.8797C17.3184 11.0766 17.4892 11.3744 17.568 11.6957C17.6025 11.8361 17.6183 11.9815 17.634 12.1262C17.6365 12.1496 17.6391 12.173 17.6417 12.1964Z" fill="#505050"/>
</svg>
