<svg width="19" height="18" viewBox="0 0 19 18" fill="none" xmlns="http://www.w3.org/2000/svg">
<path fill-rule="evenodd" clip-rule="evenodd" d="M17.2807 4.68111L17.2761 4.66256C16.9011 3.14645 15.2103 1.51957 13.6576 1.18111L13.6401 1.17751C11.1287 0.698409 8.58226 0.698409 6.07137 1.17751L6.05334 1.18111C4.50117 1.51957 2.81041 3.14645 2.43486 4.66256L2.43074 4.68111C1.9671 6.79841 1.9671 8.9456 2.43074 11.0629L2.43486 11.0814C2.79439 12.5329 4.35924 14.085 5.85398 14.5118V16.2042C5.85398 16.8168 6.60044 17.1176 7.02493 16.6756L8.73964 14.8932C9.11154 14.914 9.48364 14.9256 9.85574 14.9256C11.1199 14.9256 12.3847 14.8061 13.6401 14.5666L13.6576 14.563C15.2103 14.2245 16.9011 12.5976 17.2761 11.0815L17.2807 11.063C17.7444 8.9456 17.7444 6.79841 17.2807 4.68111ZM15.9238 10.7559C15.6734 11.745 14.3897 12.9747 13.3696 13.2018C12.0343 13.4558 10.6884 13.5643 9.34382 13.5271C9.31708 13.5263 9.29138 13.5367 9.27273 13.5559L8.02074 14.8411L6.68905 16.2078C6.59168 16.3093 6.42065 16.2403 6.42065 16.1001V13.2965C6.42065 13.2502 6.38758 13.2109 6.34209 13.202L6.34132 13.2018C5.3213 12.9746 4.03804 11.7449 3.78716 10.7558C3.36988 8.842 3.36988 6.90191 3.78716 4.98809C4.03804 3.99899 5.3213 2.7693 6.34132 2.54211C8.67344 2.09856 11.038 2.09856 13.3696 2.54211C14.3902 2.7693 15.6734 3.99899 15.9238 4.98809C16.3415 6.90196 16.3415 8.84205 15.9238 10.7559ZM12.0744 12.0499C12.0239 12.0346 11.9741 12.0208 11.9252 12.0074C11.8224 11.979 11.7234 11.9517 11.6294 11.9127C10.1912 11.3161 8.8677 10.5463 7.8193 9.36634C7.2231 8.69534 6.75647 7.9378 6.36201 7.13611C6.19429 6.79522 6.05022 6.44235 5.9064 6.09011L5.9064 6.0901L5.85664 5.96835C5.71013 5.61041 5.92593 5.24063 6.15317 4.97095C6.36639 4.71785 6.64077 4.52415 6.93791 4.3814C7.16984 4.26997 7.39862 4.33421 7.568 4.53079C7.93418 4.9558 8.27053 5.40255 8.54289 5.89519C8.71037 6.19821 8.66442 6.56861 8.36089 6.77483C8.30161 6.81511 8.24656 6.86101 8.19156 6.90686L8.19154 6.90687L8.15117 6.9404C8.09089 6.99001 8.03417 7.04014 7.99286 7.10731C7.91733 7.23023 7.91373 7.3752 7.96236 7.50883C8.33667 8.5375 8.96759 9.33739 10.003 9.76821L10.0472 9.78682C10.1985 9.85062 10.352 9.91542 10.5259 9.89515C10.7327 9.87098 10.8491 9.71566 10.9661 9.5594C11.0299 9.47416 11.094 9.38865 11.173 9.32399C11.392 9.14497 11.6718 9.1426 11.9076 9.29185C12.1435 9.44114 12.3722 9.60141 12.5995 9.76337L12.6455 9.79612C12.853 9.94386 13.0589 10.0903 13.2505 10.2591C13.4484 10.4334 13.5166 10.662 13.4051 10.8985C13.2011 11.3317 12.9043 11.692 12.4761 11.922C12.3934 11.9664 12.2997 11.9903 12.2051 12.0143C12.1614 12.0255 12.1175 12.0366 12.0744 12.0499ZM13.6168 7.04698C13.2857 5.18725 11.7407 3.93886 9.85961 3.88616L9.82791 3.88578C9.80205 3.88536 9.77619 3.88494 9.75044 3.88637C9.61707 3.89353 9.49884 4.00506 9.52383 4.14514C9.55195 4.30296 9.7106 4.31895 9.84138 4.33214L9.86404 4.33446C9.93015 4.34139 9.99649 4.34712 10.0628 4.35286L10.0628 4.35286L10.0628 4.35286C10.2098 4.36555 10.3567 4.37825 10.5013 4.40405C11.8961 4.65283 13.0135 5.81214 13.2082 7.21343C13.2377 7.42517 13.2522 7.63908 13.2667 7.85283C13.2703 7.90705 13.274 7.96126 13.2779 8.01543C13.2877 8.15066 13.3556 8.27682 13.5064 8.27501C13.6524 8.27326 13.729 8.14473 13.7184 8.00945L13.7093 7.89051V7.89049C13.6878 7.60811 13.6663 7.32481 13.6168 7.04698ZM12.7183 7.59205C12.7175 7.59799 12.7168 7.60595 12.716 7.61538L12.716 7.6154C12.7136 7.64327 12.7101 7.68393 12.6998 7.7228C12.6499 7.91166 12.3635 7.9353 12.2976 7.74469C12.2781 7.68813 12.2751 7.62378 12.275 7.56289C12.2744 7.16447 12.1878 6.76645 11.9869 6.4198C11.7803 6.06352 11.4648 5.76401 11.0947 5.58277C10.8709 5.4732 10.6289 5.40509 10.3836 5.3645C10.3169 5.35347 10.2497 5.34513 10.1825 5.33679C10.1418 5.33173 10.101 5.32668 10.0604 5.32102C9.92982 5.30289 9.86012 5.21969 9.8663 5.09105C9.87207 4.97051 9.96017 4.8838 10.0915 4.89122C10.5232 4.91574 10.9402 5.00904 11.324 5.21227C12.1045 5.62558 12.5503 6.27798 12.6804 7.14912C12.6825 7.16324 12.6851 7.17732 12.6876 7.1914C12.6922 7.21664 12.6968 7.24186 12.6988 7.26729C12.7039 7.33605 12.7078 7.40486 12.7122 7.48446L12.7183 7.59205ZM11.2905 7.31782C11.3067 7.46211 11.3909 7.54923 11.5483 7.54639C11.62 7.54155 11.6935 7.49184 11.7165 7.39262C11.7295 7.3365 11.7241 7.27469 11.719 7.21583L11.7185 7.21005C11.6441 6.35148 11.1229 5.97444 10.3935 5.92179C10.2769 5.91334 10.173 5.99669 10.1551 6.10348C10.1354 6.22084 10.2046 6.32212 10.3297 6.35277C10.3836 6.366 10.4386 6.37101 10.4937 6.37604C10.5562 6.38174 10.6188 6.38745 10.6802 6.40516C10.7711 6.43138 10.8578 6.47203 10.9344 6.52782C11.0965 6.64595 11.199 6.8246 11.2463 7.01738C11.267 7.10162 11.2764 7.18888 11.2859 7.2757C11.2874 7.28976 11.2889 7.3038 11.2905 7.31782Z" fill="#E1BA80"/>
</svg>
