<svg width="31" height="30" viewBox="0 0 31 30" fill="none" xmlns="http://www.w3.org/2000/svg">
<path fill-rule="evenodd" clip-rule="evenodd" d="M27.625 7.80198L27.6172 7.77107C26.9922 5.24421 24.1742 2.53275 21.5864 1.96865L21.5572 1.96264C17.3716 1.16415 13.1275 1.16415 8.94269 1.96264L8.91264 1.96865C6.32568 2.53275 3.50775 5.24421 2.88183 7.77107L2.87496 7.80198C2.10223 11.3308 2.10223 14.9095 2.87496 18.4383L2.88183 18.4692C3.48105 20.8882 6.08913 23.4751 8.58036 24.1865V27.0072C8.58036 28.0281 9.82447 28.5295 10.532 27.7928L13.3898 24.8222C14.0096 24.8569 14.6298 24.8762 15.25 24.8762C17.357 24.8762 19.4648 24.677 21.5572 24.2777L21.5864 24.2717C24.1742 23.7076 26.9922 20.9962 27.6172 18.4693L27.625 18.4384C28.3977 14.9095 28.3977 11.3308 27.625 7.80198ZM25.3634 17.9266C24.9461 19.5751 22.8065 21.6246 21.1065 22.0032C18.8809 22.4264 16.6377 22.6073 14.3968 22.5452C14.3522 22.544 14.3094 22.5613 14.2783 22.5932L12.1916 24.7353L9.97215 27.0131C9.80987 27.1823 9.52482 27.0672 9.52482 26.8337V22.161C9.52482 22.0838 9.46969 22.0182 9.39388 22.0034L9.39259 22.0031C7.69257 21.6245 5.55379 19.575 5.13566 17.9265C4.44019 14.7368 4.44019 11.5033 5.13566 8.31362C5.55379 6.6651 7.69257 4.61563 9.39259 4.23699C13.2795 3.49773 17.2204 3.49773 21.1065 4.23699C22.8073 4.61563 24.9461 6.6651 25.3634 8.31362C26.0596 11.5034 26.0596 14.7369 25.3634 17.9266ZM18.9478 20.0833C18.8636 20.0577 18.7806 20.0349 18.6991 20.0124L18.699 20.0124L18.699 20.0124C18.5277 19.9652 18.3628 19.9197 18.2061 19.8547C15.8092 18.8602 13.6033 17.5773 11.856 15.6107C10.8623 14.4924 10.0846 13.2298 9.42715 11.8936C9.14762 11.3255 8.90749 10.7374 8.66779 10.1503L8.58487 9.94737C8.34068 9.35082 8.70035 8.73452 9.07908 8.28504C9.43445 7.86321 9.89174 7.54038 10.387 7.30246C10.7735 7.11674 11.1548 7.22381 11.4371 7.55145C12.0474 8.2598 12.608 9.00437 13.0619 9.82545C13.3411 10.3305 13.2645 10.9478 12.7586 11.2915C12.6598 11.3586 12.5681 11.4351 12.4764 11.5116L12.4761 11.5118L12.4761 11.5118L12.476 11.5119C12.4537 11.5305 12.4314 11.549 12.4091 11.5675C12.3086 11.6501 12.2141 11.7337 12.1452 11.8457C12.0194 12.0505 12.0133 12.2921 12.0944 12.5148C12.7183 14.2293 13.7698 15.5624 15.4954 16.2805L15.5692 16.3115C15.8212 16.4178 16.0772 16.5258 16.367 16.492C16.7117 16.4518 16.9056 16.1929 17.1006 15.9325C17.207 15.7904 17.3138 15.6479 17.4455 15.5401C17.8104 15.2418 18.2767 15.2378 18.6698 15.4865C19.063 15.7354 19.4441 16.0025 19.8229 16.2724L19.8995 16.327L19.8995 16.327L19.8996 16.327L19.8996 16.327C20.2455 16.5732 20.5886 16.8174 20.908 17.0986C21.2378 17.3891 21.3514 17.7702 21.1657 18.1643C20.8257 18.8863 20.3309 19.4868 19.6173 19.8702C19.4794 19.9441 19.3233 19.9839 19.1656 20.024C19.0928 20.0426 19.0196 20.0612 18.9478 20.0833ZM21.5185 11.7451C20.9667 8.64561 18.3916 6.56496 15.2565 6.47713C15.2389 6.47705 15.2213 6.47677 15.2038 6.47649L15.2036 6.47648H15.2036H15.2036C15.1605 6.47579 15.1174 6.47509 15.0745 6.47747C14.8522 6.48941 14.6552 6.67529 14.6968 6.90874C14.7437 7.17178 15.0081 7.19844 15.2261 7.22042L15.2639 7.22428C15.3741 7.23584 15.4846 7.2454 15.5952 7.25495C15.8401 7.27611 16.085 7.29727 16.326 7.34028C18.6507 7.75489 20.513 9.68709 20.8375 12.0226C20.8866 12.3754 20.9107 12.7319 20.9349 13.0881L20.9349 13.0881L20.9349 13.0883L20.9349 13.0888L20.935 13.0892C20.9411 13.1793 20.9472 13.2693 20.9537 13.3592C20.97 13.5846 21.0831 13.7949 21.3344 13.7919C21.5777 13.789 21.7054 13.5747 21.6878 13.3493L21.6726 13.1511C21.6368 12.6804 21.6009 12.2082 21.5185 11.7451ZM20.0171 12.6924L20.0171 12.6925C20.0131 12.7389 20.0072 12.8067 19.9901 12.8715C19.9069 13.1862 19.4297 13.2257 19.3198 12.908C19.2873 12.8137 19.2824 12.7065 19.2822 12.605C19.2811 11.9409 19.1367 11.2776 18.8019 10.6998C18.4577 10.106 17.9318 9.60683 17.315 9.30478C16.942 9.12215 16.5386 9.00864 16.1298 8.94099C16.0186 8.9226 15.9066 8.9087 15.7946 8.8948L15.7946 8.89479C15.7267 8.88637 15.6588 8.87795 15.5911 8.86852C15.3735 8.8383 15.2573 8.69963 15.2676 8.48524C15.2773 8.28433 15.4241 8.13983 15.643 8.15219C16.3625 8.19306 17.0575 8.34855 17.6971 8.68727C18.9979 9.37613 19.7409 10.4635 19.9578 11.9153C19.9613 11.9389 19.9656 11.9623 19.9699 11.9858V11.9858C19.9775 12.0279 19.9852 12.0699 19.9884 12.1123C19.997 12.2269 20.0034 12.3417 20.0108 12.4744L20.0109 12.4758C20.014 12.5315 20.0172 12.5903 20.0209 12.6536C20.0196 12.6635 20.0185 12.6767 20.0171 12.6924ZM17.6412 12.1965C17.6683 12.437 17.8086 12.5822 18.0709 12.5775C18.1904 12.5694 18.3128 12.4866 18.3512 12.3212C18.3729 12.2277 18.3639 12.1246 18.3554 12.0265L18.3545 12.0169C18.2306 10.586 17.3618 9.95755 16.1463 9.8698C15.9518 9.85572 15.7787 9.99464 15.7489 10.1726C15.7161 10.3682 15.8314 10.537 16.0398 10.5881C16.1298 10.6101 16.2215 10.6185 16.3133 10.6269C16.4174 10.6364 16.5218 10.6459 16.624 10.6754C16.7755 10.7191 16.9201 10.7869 17.0477 10.8799C17.318 11.0767 17.4887 11.3745 17.5676 11.6958C17.602 11.8362 17.6178 11.9816 17.6335 12.1263C17.6361 12.1497 17.6386 12.1732 17.6412 12.1965Z" fill="#E1BA80"/>
</svg>
