<svg width="19" height="18" viewBox="0 0 19 18" fill="none" xmlns="http://www.w3.org/2000/svg">
<path d="M17.0581 8.79981C17.0581 12.9821 13.6418 16.3723 9.42671 16.3723C8.0886 16.3723 6.83149 16.0303 5.73778 15.4301L1.5127 16.7727L2.8902 12.7098C2.19531 11.5688 1.7951 10.2305 1.7951 8.79981C1.7951 4.61756 5.21182 1.22727 9.42671 1.22727C13.6421 1.22727 17.0581 4.61756 17.0581 8.79981ZM9.42671 2.43325C5.88857 2.43325 3.01059 5.2893 3.01059 8.79981C3.01059 10.1929 3.46469 11.483 4.2328 12.5324L3.43118 14.8969L5.89686 14.1132C6.9099 14.7784 8.12349 15.1664 9.42689 15.1664C12.9645 15.1664 15.843 12.3107 15.843 8.80015C15.843 5.28964 12.9647 2.43325 9.42671 2.43325ZM13.2804 10.5438C13.2333 10.4666 13.1087 10.42 12.9219 10.3272C12.7346 10.2345 11.8147 9.78522 11.6437 9.72355C11.4721 9.66172 11.3471 9.63063 11.2226 9.81631C11.098 10.0022 10.7394 10.42 10.6301 10.5438C10.5209 10.668 10.4119 10.6836 10.2247 10.5906C10.0378 10.4979 9.43518 10.3017 8.7206 9.66949C8.1646 9.17756 7.78909 8.57025 7.67992 8.38423C7.57093 8.19854 7.66852 8.09819 7.76197 8.00578C7.84626 7.92253 7.9492 7.78901 8.04265 7.68071C8.13644 7.57224 8.16753 7.49503 8.22954 7.37101C8.29224 7.24716 8.26098 7.13886 8.214 7.04576C8.16736 6.95301 7.79289 6.03963 7.63709 5.66792C7.48129 5.29655 7.32566 5.35839 7.21632 5.35839C7.10733 5.35839 6.98245 5.34284 6.85774 5.34284C6.73303 5.34284 6.53025 5.38931 6.35873 5.57499C6.18739 5.76084 5.70427 6.20994 5.70427 7.12314C5.70427 8.03653 6.37428 8.91899 6.46807 9.04266C6.56151 9.16634 7.7618 11.1016 9.66352 11.8448C11.5654 12.5877 11.5654 12.3399 11.9085 12.3088C12.2511 12.2778 13.0149 11.8598 13.1714 11.4266C13.3269 10.9928 13.3269 10.6212 13.2804 10.5438Z" fill="#E1BA80"/>
</svg>
