<svg width="31" height="30" viewBox="0 0 31 30" fill="none" xmlns="http://www.w3.org/2000/svg">
<path d="M28.705 14.6663C28.705 21.6367 23.011 27.2872 15.9859 27.2872C13.7557 27.2872 11.6606 26.7172 9.8377 25.7168L2.7959 27.9545L5.09173 21.183C3.9336 19.2813 3.26658 17.0508 3.26658 14.6663C3.26658 7.6959 8.96111 2.04541 15.9859 2.04541C23.0116 2.04541 28.705 7.6959 28.705 14.6663ZM15.9859 4.05538C10.089 4.05538 5.29238 8.81546 5.29238 14.6663C5.29238 16.988 6.04922 19.1382 7.32941 20.8874L5.99337 24.8281L10.1028 23.522C11.7912 24.6307 13.8139 25.2772 15.9862 25.2772C21.8823 25.2772 26.6798 20.5177 26.6798 14.6669C26.6798 8.81603 21.8826 4.05538 15.9859 4.05538ZM22.4088 17.573C22.3302 17.4443 22.1226 17.3666 21.8112 17.212C21.4991 17.0574 19.9659 16.3087 19.6809 16.2059C19.395 16.1028 19.1866 16.051 18.979 16.3605C18.7714 16.6702 18.1738 17.3666 17.9916 17.573C17.8096 17.78 17.628 17.8059 17.3159 17.651C17.0044 17.4964 16 17.1694 14.8091 16.1158C13.8824 15.2959 13.2566 14.2837 13.0746 13.9737C12.893 13.6642 13.0556 13.4969 13.2114 13.3429C13.3518 13.2042 13.5234 12.9816 13.6792 12.8011C13.8355 12.6203 13.8873 12.4917 13.9906 12.285C14.0951 12.0786 14.043 11.8981 13.9647 11.7429C13.887 11.5883 13.2629 10.066 13.0032 9.44649C12.7436 8.82755 12.4842 8.93061 12.3019 8.93061C12.1203 8.93061 11.9122 8.9047 11.7043 8.9047C11.4965 8.9047 11.1585 8.98214 10.8726 9.29161C10.5871 9.60137 9.78185 10.3498 9.78185 11.8719C9.78185 13.3942 10.8985 14.8649 11.0549 15.0711C11.2106 15.2772 13.2111 18.5026 16.3806 19.7413C19.5504 20.9795 19.5504 20.5664 20.1222 20.5146C20.6933 20.463 21.9663 19.7664 22.2271 19.0444C22.4862 18.3212 22.4862 17.702 22.4088 17.573Z" fill="#505050"/>
</svg>
