<svg width="31" height="30" viewBox="0 0 31 30" fill="none" xmlns="http://www.w3.org/2000/svg">
<path d="M28.7045 14.6663C28.7045 21.6367 23.0105 27.2872 15.9854 27.2872C13.7552 27.2872 11.6601 26.7172 9.83721 25.7168L2.79541 27.9545L5.09124 21.183C3.93311 19.2813 3.26609 17.0508 3.26609 14.6663C3.26609 7.6959 8.96062 2.04541 15.9854 2.04541C23.0111 2.04541 28.7045 7.6959 28.7045 14.6663ZM15.9854 4.05538C10.0885 4.05538 5.2919 8.81546 5.2919 14.6663C5.2919 16.988 6.04873 19.1382 7.32893 20.8874L5.99288 24.8281L10.1024 23.522C11.7908 24.6307 13.8134 25.2772 15.9857 25.2772C21.8818 25.2772 26.6793 20.5177 26.6793 14.6669C26.6793 8.81603 21.8821 4.05538 15.9854 4.05538ZM22.4083 17.573C22.3297 17.4443 22.1222 17.3666 21.8107 17.212C21.4986 17.0574 19.9654 16.3087 19.6804 16.2059C19.3945 16.1028 19.1861 16.051 18.9785 16.3605C18.771 16.6702 18.1733 17.3666 17.9911 17.573C17.8092 17.78 17.6275 17.8059 17.3154 17.651C17.004 17.4964 15.9995 17.1694 14.8086 16.1158C13.8819 15.2959 13.2561 14.2837 13.0741 13.9737C12.8925 13.6642 13.0551 13.4969 13.2109 13.3429C13.3514 13.2042 13.5229 12.9816 13.6787 12.8011C13.835 12.6203 13.8868 12.4917 13.9902 12.285C14.0947 12.0786 14.0425 11.8981 13.9642 11.7429C13.8865 11.5883 13.2624 10.066 13.0027 9.44649C12.7431 8.82755 12.4837 8.93061 12.3015 8.93061C12.1198 8.93061 11.9117 8.9047 11.7038 8.9047C11.496 8.9047 11.158 8.98214 10.8721 9.29161C10.5866 9.60137 9.78137 10.3498 9.78137 11.8719C9.78137 13.3942 10.898 14.8649 11.0544 15.0711C11.2101 15.2772 13.2106 18.5026 16.3801 19.7413C19.55 20.9795 19.55 20.5664 20.1217 20.5146C20.6928 20.463 21.9658 19.7664 22.2267 19.0444C22.4857 18.3212 22.4857 17.702 22.4083 17.573Z" fill="#E1BA80"/>
</svg>
