<svg width="159" height="38" viewBox="0 0 159 38" fill="none" xmlns="http://www.w3.org/2000/svg">
<path fill-rule="evenodd" clip-rule="evenodd" d="M0 4.13081L12.67 0L25.3405 4.13081V33.8688L12.67 38L0 33.8688V4.13081Z" fill="white"/>
<path fill-rule="evenodd" clip-rule="evenodd" d="M12.6703 33.4701L0.956436 29.6511L0.956055 31.46L12.6703 35.2791V33.4701Z" fill="white"/>
<path fill-rule="evenodd" clip-rule="evenodd" d="M12.6699 33.4701L24.3841 29.6511V31.46L12.6703 35.2791L12.6699 33.4701Z" fill="white"/>
<path fill-rule="evenodd" clip-rule="evenodd" d="M12.6703 34.7566L0.956436 30.9372L0.956055 32.7462L12.6703 36.5652V34.7566Z" fill="white"/>
<path fill-rule="evenodd" clip-rule="evenodd" d="M12.6699 34.7566L24.3841 30.9372V32.7462L12.6703 36.5652L12.6699 34.7566Z" fill="white"/>
<path fill-rule="evenodd" clip-rule="evenodd" d="M0.956055 5.25304L12.6703 9.07208V33.482L0.956436 29.6629L0.956055 5.25304Z" fill="#003E15"/>
<path fill-rule="evenodd" clip-rule="evenodd" d="M12.6703 1.43401L24.3841 5.25305L12.6703 9.07209L0.956055 5.25305L12.6703 1.43401Z" fill="#13A538"/>
<path fill-rule="evenodd" clip-rule="evenodd" d="M12.6703 14.4963L0.956436 10.6773L0.956055 12.4863L12.6703 16.3053V14.4963Z" fill="white"/>
<path d="M1.11464 30.2746L1.81101 30.5021C2.00026 30.5642 2.13381 30.6258 2.21127 30.6879C2.28835 30.7495 2.3536 30.8353 2.40625 30.9453C2.45967 31.0552 2.486 31.1682 2.486 31.2854C2.486 31.393 2.46349 31.4826 2.41847 31.555C2.37306 31.6274 2.31468 31.6722 2.24256 31.6906C2.34444 31.7622 2.42457 31.8541 2.48181 31.9668C2.53942 32.0794 2.56842 32.2019 2.56842 32.3364C2.56842 32.4988 2.53141 32.624 2.45739 32.7117C2.38298 32.7998 2.2956 32.8404 2.19448 32.8339C2.12389 32.8293 1.96096 32.7853 1.70455 32.7018L1.11426 32.5087V30.2746H1.11464ZM1.46301 30.7599V31.2781L1.69539 31.3539C1.83466 31.3995 1.92128 31.4252 1.95409 31.4305C2.014 31.4405 2.06093 31.4286 2.09489 31.3968C2.12885 31.3647 2.14564 31.3114 2.14564 31.2371C2.14564 31.1709 2.13152 31.1126 2.10443 31.0625C2.07696 31.0115 2.04338 30.9755 2.00408 30.9521C1.96516 30.9296 1.8526 30.8874 1.66677 30.8269L1.46301 30.7599ZM1.46301 31.6489V32.2448L1.78926 32.3513C1.93196 32.398 2.02354 32.4202 2.06437 32.4179C2.10481 32.4149 2.13877 32.3953 2.16625 32.3582C2.1941 32.3214 2.20746 32.267 2.20746 32.1962C2.20746 32.123 2.19296 32.0583 2.16319 32.0012C2.13381 31.9445 2.09489 31.8993 2.04605 31.8656C1.99759 31.8319 1.898 31.7906 1.74728 31.7412L1.46301 31.6489ZM2.86071 30.8453L3.20946 30.959V32.1675C3.20946 32.3555 3.21442 32.4788 3.22282 32.539C3.23808 32.6424 3.27509 32.7305 3.33385 32.8036C3.39223 32.876 3.46969 32.9285 3.56585 32.9599C3.64674 32.9867 3.71275 32.989 3.76465 32.968C3.81578 32.9469 3.8505 32.9055 3.8692 32.8442C3.88827 32.783 3.89781 32.6409 3.89781 32.4191V31.1846L4.24657 31.2984V32.4716C4.24657 32.7711 4.23131 32.9825 4.20116 33.1062C4.17064 33.2299 4.10195 33.3153 3.99588 33.3636C3.88942 33.4119 3.749 33.4073 3.57462 33.3502C3.39338 33.2908 3.25181 33.2104 3.15032 33.1085C3.04844 33.007 2.97479 32.8864 2.92939 32.7473C2.88322 32.6075 2.86071 32.3708 2.86071 32.0372V30.8453ZM4.60105 33.6478V31.4137L4.94942 31.5278V33.7616L4.60105 33.6478ZM5.29245 33.8734V31.6584L5.64121 31.7726V33.6099L6.5131 33.8948V34.2721L5.29245 33.8734ZM6.76455 32.1207L7.4033 32.3295C7.56509 32.3819 7.68719 32.4413 7.76923 32.5064C7.85164 32.5712 7.9272 32.6604 7.99626 32.7734C8.06571 32.886 8.12027 33.0212 8.15957 33.1782C8.19926 33.3356 8.21872 33.5214 8.21872 33.7359C8.21872 33.9289 8.19811 34.0898 8.1569 34.2189C8.11569 34.3487 8.06342 34.4445 7.99969 34.5069C7.93635 34.5697 7.85966 34.6073 7.76961 34.6199C7.67956 34.6325 7.56356 34.6161 7.42238 34.5697L6.76493 34.3548V32.1207H6.76455ZM7.11293 32.6121V34.091L7.37621 34.1767C7.48877 34.2135 7.57043 34.2292 7.62118 34.2235C7.67193 34.2181 7.71313 34.1974 7.74519 34.163C7.778 34.1285 7.80433 34.0657 7.8257 33.9749C7.84707 33.8845 7.85775 33.7596 7.85775 33.6003C7.85775 33.4348 7.84707 33.3008 7.82494 33.1978C7.80319 33.0955 7.76923 33.0089 7.72382 32.9396C7.67765 32.8703 7.62194 32.8155 7.55669 32.7772C7.50785 32.7481 7.41284 32.7102 7.27166 32.6642L7.11293 32.6121ZM8.50451 34.9229V32.6887L8.85327 32.8029V35.037L8.50451 34.9229ZM9.1963 35.1488V32.9151L9.53551 33.0262L10.2483 34.7509V33.259L10.5738 33.3651V35.5989L10.2227 35.484L9.52178 33.7987V35.2549L9.1963 35.1488ZM11.7463 35.1615V34.7838L12.503 35.0313V35.921C12.4271 35.9911 12.3195 36.0367 12.1802 36.0593C12.0398 36.0819 11.9001 36.0696 11.7597 36.024C11.5884 35.9681 11.4369 35.8743 11.3064 35.7429C11.1751 35.6111 11.0713 35.4438 10.995 35.2419C10.9187 35.0404 10.8805 34.8191 10.8805 34.5797C10.8805 34.3342 10.9191 34.1361 10.9965 33.9872C11.074 33.8378 11.1744 33.7401 11.298 33.6941C11.422 33.6486 11.5697 33.6535 11.7418 33.7099C11.9489 33.7776 12.1145 33.8872 12.2389 34.0396C12.3637 34.1917 12.4438 34.3817 12.4793 34.6088L12.1336 34.5801C12.1073 34.4567 12.06 34.3533 11.9909 34.2691C11.9215 34.1856 11.8387 34.1281 11.7418 34.0963C11.5929 34.0477 11.472 34.0691 11.3793 34.161C11.2873 34.2534 11.2408 34.4242 11.2408 34.6743C11.2408 34.9432 11.2911 35.1634 11.3911 35.3361C11.4766 35.4844 11.5926 35.5828 11.7387 35.6303C11.8074 35.6529 11.878 35.6586 11.9512 35.6491C12.0253 35.6395 12.0905 35.6146 12.1481 35.5751V35.2932L11.7463 35.1615Z" fill="#003E15"/>
<path fill-rule="evenodd" clip-rule="evenodd" d="M12.6709 10.8833L24.3954 7.05473V8.86256C20.6068 9.953 16.6846 11.5394 12.6709 12.6931V10.8833Z" fill="white"/>
<path fill-rule="evenodd" clip-rule="evenodd" d="M24.3841 5.25304L12.6699 9.07208V33.482L24.3838 29.6629L24.3841 5.25304Z" fill="#1D7B33"/>
<path d="M13.0977 33.8776L13.4911 33.7489C13.5903 33.7164 13.6658 33.711 13.7166 33.7325C13.7673 33.7535 13.8135 33.8029 13.8562 33.8791C13.899 33.9554 13.9325 34.0618 13.9566 34.1982C13.9806 34.3349 13.9928 34.5104 13.9928 34.7245C13.9928 34.9175 13.9802 35.0895 13.9547 35.2404C13.9291 35.3917 13.897 35.5154 13.8577 35.6111C13.8184 35.7077 13.7715 35.7854 13.7162 35.8459C13.6609 35.9064 13.5895 35.9509 13.5025 35.9792L13.0977 36.1117V33.8776ZM13.3125 34.1848V35.6636L13.4746 35.6108C13.5441 35.5882 13.5948 35.5606 13.6257 35.528C13.657 35.4955 13.6822 35.4533 13.7021 35.402C13.7223 35.3499 13.7383 35.2733 13.7513 35.1714C13.7643 35.0699 13.7711 34.9393 13.7711 34.78C13.7711 34.6145 13.7646 34.4858 13.7513 34.3951C13.7383 34.3039 13.7173 34.2357 13.6887 34.1902C13.6605 34.1446 13.6261 34.1197 13.5861 34.1155C13.5559 34.1124 13.4975 34.1247 13.4109 34.153L13.3125 34.1848ZM14.1764 35.7586V33.5249L14.9681 33.2659V33.6436L14.3912 33.8324V34.3254L14.9277 34.1499V34.5276L14.3912 34.703V35.3112L14.9883 35.1159V35.4936L14.1764 35.7586ZM15.4447 35.3442L15.0624 33.2353L15.2936 33.1598L15.5653 34.7245L15.8247 32.986L16.056 32.9105L15.6775 35.268L15.4447 35.3442ZM16.1666 35.1079V32.8741L16.9584 32.6152V32.9925L16.3815 33.1813V33.6742L16.9179 33.4988V33.8765L16.3815 34.0519V34.6601L16.9782 34.4652V34.8424L16.1666 35.1079ZM17.1652 34.7815V32.5662L17.3796 32.4961V34.3338L17.9165 34.1584V34.5356L17.1652 34.7815ZM18.0295 33.3954C18.0295 33.1296 18.0523 32.9032 18.0981 32.7163C18.1439 32.5294 18.2038 32.3812 18.2775 32.2728C18.3519 32.1644 18.4415 32.0928 18.5469 32.0583C18.6995 32.0081 18.8239 32.0675 18.92 32.236C19.0158 32.4049 19.0643 32.6734 19.0643 33.0434C19.0643 33.4168 19.0131 33.7256 18.9113 33.9692C18.8224 34.184 18.7006 34.3169 18.5476 34.3667C18.3927 34.4173 18.271 34.3652 18.1817 34.2105C18.0802 34.0339 18.0295 33.7619 18.0295 33.3954ZM18.2511 33.3077C18.2511 33.5639 18.2798 33.7474 18.3362 33.8565C18.3931 33.9665 18.4637 34.0071 18.548 33.9795C18.6331 33.9519 18.7033 33.8654 18.759 33.7202C18.8147 33.575 18.8426 33.3705 18.8426 33.1066C18.8426 32.8488 18.8155 32.6661 18.7613 32.5608C18.7071 32.4551 18.6365 32.4164 18.5484 32.4448C18.461 32.4735 18.3893 32.5589 18.3339 32.7014C18.2786 32.8442 18.2511 33.0461 18.2511 33.3077ZM19.2341 34.1047V31.871L19.5805 31.7576C19.7099 31.7151 19.7942 31.6986 19.8343 31.7067C19.8976 31.7205 19.9499 31.7772 19.9907 31.8764C20.0323 31.9756 20.0529 32.1142 20.0529 32.2919C20.0529 32.4532 20.0346 32.5945 19.9995 32.7155C19.964 32.8362 19.9194 32.9274 19.866 32.989C19.8125 33.0503 19.7206 33.1028 19.5901 33.1453L19.4485 33.192V34.0343L19.2341 34.1047ZM19.4489 32.1786V32.8147L19.5687 32.7753C19.6488 32.7493 19.7038 32.7213 19.7324 32.693C19.761 32.6642 19.7847 32.6217 19.8034 32.5654C19.8221 32.5083 19.8312 32.4436 19.8312 32.3701C19.8312 32.2958 19.8221 32.236 19.8026 32.1908C19.7832 32.1464 19.7595 32.1196 19.732 32.1115C19.7042 32.1031 19.645 32.1138 19.5542 32.1437L19.4489 32.1786ZM20.2254 33.7811V31.547L20.5471 31.4416L20.7409 32.9048L20.9328 31.3156L21.2568 31.2095V33.4433L21.0568 33.5088V31.7469L20.8443 33.5781L20.6383 33.6451L20.4253 31.953V33.7148L20.2254 33.7811ZM21.4724 33.3732V31.1391L22.2637 30.8801V31.2578L21.6868 31.4462V31.9392L22.2233 31.7638V32.141L21.6868 32.3168V32.9251L22.2836 32.7297V33.1074L21.4724 33.3732ZM22.4706 33.0465V30.8127L22.6797 30.7446L23.1185 32.0931V30.6013L23.3184 30.5358V32.7696L23.1024 32.8404L22.6709 31.5251V32.9814L22.4706 33.0465ZM23.7843 32.6175V30.761L23.4676 30.8644V30.4872L24.3154 30.2099V30.5871L23.9984 30.6909V32.547L23.7843 32.6175Z" fill="#1D7B33"/>
<path fill-rule="evenodd" clip-rule="evenodd" d="M12.6699 14.4963L24.3841 10.6773V12.4863L12.6703 16.3053L12.6699 14.4963Z" fill="white"/>
<path fill-rule="evenodd" clip-rule="evenodd" d="M12.6703 10.8784L0.956436 7.05897L0.956055 8.86833L12.6703 12.6874V10.8784Z" fill="white"/>
<path fill-rule="evenodd" clip-rule="evenodd" d="M12.6699 10.8784L24.3841 7.05897V8.86833L12.6703 12.6874L12.6699 10.8784Z" fill="white"/>
<path d="M6.54195 20.9555L5.34802 20.5706V19.9068L6.54195 20.2917V20.9555ZM6.47823 19.1649L1.83071 17.6665C1.96845 17.2686 2.21266 17.1261 2.56294 17.2391L5.746 18.2652C6.09628 18.3778 6.3401 18.6777 6.47823 19.1649ZM6.54195 21.8406L5.34802 21.4561V20.7919L6.54195 21.1769V21.8406ZM6.54195 20.0703L1.7666 18.531V18.0886C1.7666 18.0147 1.77194 17.9423 1.78263 17.8722L6.52593 19.4012C6.53661 19.4786 6.54195 19.554 6.54195 19.6276V20.0703ZM6.54195 22.7254L5.34802 22.3408V21.6771L6.54195 22.062V22.7254ZM6.54195 23.6109L5.34802 23.226V22.5622L6.54195 22.9472V23.6109ZM6.54195 24.4957L5.34802 24.1111V23.4474L6.54195 23.8323V24.4957ZM2.96053 19.8011L1.7666 19.4165V18.7524L2.96053 19.1373V19.8011ZM2.96053 20.6858L1.7666 20.3013V19.6375L2.96053 20.0225V20.6858ZM2.96053 21.571L1.7666 21.1861V20.5223L2.96053 20.9072V21.571ZM6.54195 25.1595C6.54195 25.2334 6.53623 25.3054 6.52593 25.3759L1.78263 23.8469C1.77194 23.7695 1.7666 23.6944 1.7666 23.6205V23.1777L6.54195 24.7171V25.1595ZM2.96053 22.4561L1.7666 22.0716V21.4078L2.96053 21.7924V22.4561ZM6.47823 25.5815C6.3401 25.9799 6.09628 26.1224 5.746 26.0094L2.56294 24.9829C2.21304 24.8703 1.96883 24.5704 1.83071 24.0832L6.47823 25.5815ZM2.96053 23.3413L1.7666 22.9564V22.2926L2.96053 22.6771V23.3413ZM11.9934 22.4918C11.9934 22.5657 11.9881 22.6377 11.9774 22.7078L10.7995 22.3282V21.6644L11.9934 22.0494V22.4918ZM11.9297 20.9222L7.2181 19.4035V18.7397L11.1975 20.0225C11.5478 20.1355 11.7916 20.435 11.9297 20.9222ZM11.9934 21.8276L7.2181 20.2883V19.6245L11.9774 21.1589C11.9881 21.2359 11.9934 21.3113 11.9934 21.3852V21.8276ZM11.9934 25.3682L10.7995 24.9836V24.3199L11.9774 24.6995C11.9881 24.7768 11.9934 24.8523 11.9934 24.9258V25.3682ZM11.9297 22.9138C11.792 23.3122 11.5478 23.4543 11.1975 23.3417L7.2181 22.0586V21.3948L11.9297 22.9138ZM11.9934 26.2533L10.7995 25.8684V25.2046L11.9934 25.5896V26.2533ZM11.9297 24.4627L7.21848 22.9441V22.2799L11.1979 23.5627C11.5478 23.6757 11.7916 23.9759 11.9297 24.4627ZM11.9934 27.1385L10.7995 26.7539V26.0902L11.9934 26.4747V27.1385ZM8.41241 21.5583L7.2181 21.1738V20.51L8.41241 20.895V21.5583ZM11.9934 28.0236L10.7995 27.6387V26.9749L11.9934 27.3599V28.0236ZM8.41241 24.2138L7.2181 23.8289V23.1651L8.41241 23.5496V24.2138ZM8.41241 25.0989L7.2181 24.7144V24.0506L8.41241 24.4352V25.0989ZM8.41241 25.9841L7.2181 25.5992V24.9354L8.41241 25.3199V25.9841ZM8.41241 26.8688L7.2181 26.4843V25.8205L8.41241 26.2055V26.8688Z" fill="white"/>
<path d="M23.0802 24.9829L21.4971 25.485V24.8301L23.0802 24.3279V24.9829Z" fill="white"/>
<path d="M23.0802 24.1092L21.4971 24.6114V23.956L23.0802 23.4543V24.1092Z" fill="white"/>
<path d="M23.0802 23.2359L21.4971 23.7381V23.0827L23.0802 22.581V23.2359Z" fill="white"/>
<path d="M23.0802 22.3623L21.4971 22.8644V22.2091L23.0802 21.7073V22.3623Z" fill="white"/>
<path d="M23.0802 21.4886L21.4971 21.9908V21.3354L23.0802 20.8333V21.4886Z" fill="white"/>
<path d="M23.0802 20.615L21.4971 21.1171V20.4622L23.0802 19.96V20.615Z" fill="white"/>
<path d="M23.0802 19.7417L21.4971 20.2434V19.5885L23.0802 19.0864V19.7417Z" fill="white"/>
<path d="M23.0802 18.868L21.4971 19.3702V18.7148L23.0802 18.2127V18.868Z" fill="white"/>
<path d="M23.0802 17.9944L21.4971 18.4965V17.8412L23.0802 17.3395V17.9944Z" fill="white"/>
<path d="M15.1921 25.7374L13.6094 26.2392V25.5842L15.1921 25.0817V25.7374Z" fill="white"/>
<path d="M19.8564 25.3502C19.6737 25.8451 19.3497 26.166 18.8857 26.3135L13.6094 27.9865V27.3311L19.8564 25.3502Z" fill="white"/>
<path d="M15.1921 24.8638L13.6094 25.3655V24.7105L15.1921 24.2084V24.8638Z" fill="white"/>
<path d="M19.9411 24.8867C19.9411 24.9595 19.9343 25.0346 19.9202 25.1119L13.6094 27.1128V26.4579L19.9411 24.4501V24.8867Z" fill="white"/>
<path d="M15.1921 22.2432L13.6094 22.7449V22.0896L15.1921 21.5878V22.2432Z" fill="white"/>
<path d="M19.8564 22.5109L13.6094 24.4919V23.8369L18.8857 22.1639C19.3497 22.0164 19.6737 22.1325 19.8564 22.5109Z" fill="white"/>
<path d="M19.9412 24.2314L18.3584 24.7335V24.0782L19.9412 23.5764V24.2314Z" fill="white"/>
<path d="M19.8564 20.9823C19.6737 21.4771 19.3497 21.7981 18.8857 21.9456L13.6094 23.6186V22.9632L19.8564 20.9823Z" fill="white"/>
<path d="M19.9412 23.3577L18.3584 23.8599V23.2045L19.9202 22.7093C19.9343 22.7779 19.9412 22.8483 19.9412 22.9211V23.3577Z" fill="white"/>
<path d="M19.9411 19.8635L13.6094 21.8713V21.2159L19.9202 19.2147C19.9343 19.2832 19.9411 19.3537 19.9411 19.4265V19.8635Z" fill="white"/>
<path d="M19.8564 19.0167L13.6094 20.9976V20.3423L18.8857 18.6689C19.3497 18.5222 19.6737 18.6379 19.8564 19.0167Z" fill="white"/>
<path d="M19.9412 20.5188C19.9412 20.5916 19.9343 20.6667 19.9202 20.744L18.3584 21.2393V20.5839L19.9412 20.0818V20.5188Z" fill="white"/>
<path d="M50.5304 23.326C49.2584 24.586 47.6624 25.216 45.7424 25.216C43.8224 25.216 42.2264 24.586 40.9544 23.326C39.6944 22.066 39.0644 20.524 39.0644 18.7C39.0644 16.888 39.7004 15.352 40.9724 14.092C42.2564 12.82 43.8584 12.184 45.7784 12.184C47.6984 12.184 49.2884 12.814 50.5484 14.074C51.8204 15.334 52.4564 16.876 52.4564 18.7C52.4564 20.512 51.8144 22.054 50.5304 23.326ZM43.0424 21.508C43.7624 22.276 44.6744 22.66 45.7784 22.66C46.8824 22.66 47.7884 22.282 48.4964 21.526C49.2044 20.758 49.5584 19.816 49.5584 18.7C49.5584 17.596 49.1984 16.66 48.4784 15.892C47.7584 15.124 46.8464 14.74 45.7424 14.74C44.6384 14.74 43.7324 15.124 43.0244 15.892C42.3164 16.648 41.9624 17.584 41.9624 18.7C41.9624 19.804 42.3224 20.74 43.0424 21.508ZM54.9153 25V12.4H60.6753C62.2713 12.4 63.4953 12.826 64.3473 13.678C65.0673 14.398 65.4273 15.37 65.4273 16.594C65.4273 18.526 64.5273 19.828 62.7273 20.5L65.8053 25H62.5653L59.8293 20.968H57.6873V25H54.9153ZM57.6873 18.52H60.4953C61.1673 18.52 61.6893 18.358 62.0613 18.034C62.4333 17.698 62.6193 17.254 62.6193 16.702C62.6193 16.114 62.4273 15.67 62.0433 15.37C61.6593 15.058 61.1253 14.902 60.4413 14.902H57.6873V18.52ZM67.9231 25V12.4H73.7731C75.2251 12.4 76.3231 12.772 77.0671 13.516C77.6431 14.092 77.9311 14.818 77.9311 15.694C77.9311 16.882 77.3791 17.788 76.2751 18.412C77.0551 18.712 77.6431 19.108 78.0391 19.6C78.4351 20.08 78.6331 20.728 78.6331 21.544C78.6331 22.672 78.2131 23.53 77.3731 24.118C76.5331 24.706 75.3811 25 73.9171 25H67.9231ZM70.6231 17.494H73.1791C74.5111 17.494 75.1771 17.038 75.1771 16.126C75.1771 15.706 75.0211 15.388 74.7091 15.172C74.3971 14.944 73.9471 14.83 73.3591 14.83H70.6231V17.494ZM70.6231 22.57H73.9171C75.2251 22.57 75.8791 22.102 75.8791 21.166C75.8791 20.254 75.1951 19.798 73.8271 19.798H70.6231V22.57ZM81.0394 25V12.4H83.8114V25H81.0394ZM98.4227 25.216C96.4667 25.216 94.8707 24.604 93.6347 23.38C92.4107 22.156 91.7987 20.596 91.7987 18.7C91.7987 16.888 92.4287 15.352 93.6887 14.092C94.9487 12.82 96.5207 12.184 98.4047 12.184C99.4967 12.184 100.421 12.328 101.177 12.616C101.933 12.892 102.659 13.324 103.355 13.912L101.609 16.018C101.081 15.574 100.571 15.25 100.079 15.046C99.5867 14.842 98.9987 14.74 98.3147 14.74C97.3067 14.74 96.4487 15.13 95.7407 15.91C95.0447 16.678 94.6967 17.608 94.6967 18.7C94.6967 19.852 95.0507 20.806 95.7587 21.562C96.4787 22.318 97.3967 22.696 98.5127 22.696C99.5447 22.696 100.415 22.444 101.123 21.94V20.14H98.3327V17.746H103.805V23.218C102.233 24.55 100.439 25.216 98.4227 25.216ZM106.472 25V12.4H112.232C113.828 12.4 115.052 12.826 115.904 13.678C116.624 14.398 116.984 15.37 116.984 16.594C116.984 18.526 116.084 19.828 114.284 20.5L117.362 25H114.122L111.386 20.968H109.244V25H106.472ZM109.244 18.52H112.052C112.724 18.52 113.246 18.358 113.618 18.034C113.99 17.698 114.176 17.254 114.176 16.702C114.176 16.114 113.984 15.67 113.6 15.37C113.216 15.058 112.682 14.902 111.998 14.902H109.244V18.52ZM130.388 23.326C129.116 24.586 127.52 25.216 125.6 25.216C123.68 25.216 122.084 24.586 120.812 23.326C119.552 22.066 118.922 20.524 118.922 18.7C118.922 16.888 119.558 15.352 120.83 14.092C122.114 12.82 123.716 12.184 125.636 12.184C127.556 12.184 129.146 12.814 130.406 14.074C131.678 15.334 132.314 16.876 132.314 18.7C132.314 20.512 131.672 22.054 130.388 23.326ZM122.9 21.508C123.62 22.276 124.532 22.66 125.636 22.66C126.74 22.66 127.646 22.282 128.354 21.526C129.062 20.758 129.416 19.816 129.416 18.7C129.416 17.596 129.056 16.66 128.336 15.892C127.616 15.124 126.704 14.74 125.6 14.74C124.496 14.74 123.59 15.124 122.882 15.892C122.174 16.648 121.82 17.584 121.82 18.7C121.82 19.804 122.18 20.74 122.9 21.508ZM140.029 25.198C138.313 25.198 136.975 24.724 136.015 23.776C135.055 22.816 134.575 21.424 134.575 19.6V12.4H137.347V19.528C137.347 20.536 137.581 21.31 138.049 21.85C138.529 22.378 139.201 22.642 140.065 22.642C140.929 22.642 141.595 22.384 142.063 21.868C142.543 21.352 142.783 20.602 142.783 19.618V12.4H145.555V19.51C145.555 21.382 145.063 22.798 144.079 23.758C143.107 24.718 141.757 25.198 140.029 25.198ZM148.378 25V12.4H153.526C155.014 12.4 156.19 12.802 157.054 13.606C157.918 14.41 158.35 15.472 158.35 16.792C158.35 18.196 157.87 19.288 156.91 20.068C155.95 20.836 154.732 21.22 153.256 21.22H151.15V25H148.378ZM151.15 18.754H153.346C154.03 18.754 154.564 18.574 154.948 18.214C155.344 17.854 155.542 17.386 155.542 16.81C155.542 16.198 155.344 15.73 154.948 15.406C154.552 15.07 154 14.902 153.292 14.902H151.15V18.754Z" fill="white"/>
</svg>
