<svg width="151" height="67" viewBox="0 0 151 67" fill="none" xmlns="http://www.w3.org/2000/svg">
<path fill-rule="evenodd" clip-rule="evenodd" d="M0 7.24043L22.2264 0L44.4535 7.24043V59.3648L22.2264 66.6059L0 59.3648V7.24043Z" fill="white"/>
<path fill-rule="evenodd" clip-rule="evenodd" d="M22.2274 58.6661L1.6784 51.9722L1.67773 55.1429L22.2274 61.8369V58.6661Z" fill="white"/>
<path fill-rule="evenodd" clip-rule="evenodd" d="M22.2266 58.6661L42.7762 51.9722V55.1429L22.2272 61.8369L22.2266 58.6661Z" fill="white"/>
<path fill-rule="evenodd" clip-rule="evenodd" d="M22.2274 60.9207L1.6784 54.2261L1.67773 57.3968L22.2274 64.0908V60.9207Z" fill="white"/>
<path fill-rule="evenodd" clip-rule="evenodd" d="M22.2266 60.9207L42.7762 54.2261V57.3968L22.2272 64.0908L22.2266 60.9207Z" fill="white"/>
<path fill-rule="evenodd" clip-rule="evenodd" d="M1.67773 9.20752L22.2274 15.9015V58.6868L1.6784 51.9928L1.67773 9.20752Z" fill="#003E15"/>
<path fill-rule="evenodd" clip-rule="evenodd" d="M22.2274 2.51367L42.7763 9.20763L22.2274 15.9016L1.67773 9.20763L22.2274 2.51367Z" fill="#13A538"/>
<path fill-rule="evenodd" clip-rule="evenodd" d="M22.2274 25.4088L1.6784 18.7148L1.67773 21.8856L22.2274 28.5795V25.4088Z" fill="white"/>
<path d="M1.95477 53.0649L3.17637 53.4637C3.50838 53.5725 3.74266 53.6806 3.87854 53.7893C4.01375 53.8974 4.12821 54.0478 4.22059 54.2405C4.3143 54.4331 4.36048 54.6312 4.36048 54.8366C4.36048 55.0253 4.32099 55.1824 4.24201 55.3092C4.16235 55.4361 4.05994 55.5147 3.93343 55.5469C4.11215 55.6724 4.25272 55.8336 4.35312 56.0309C4.4542 56.2283 4.50507 56.4431 4.50507 56.6788C4.50507 56.9634 4.44014 57.183 4.31028 57.3367C4.17975 57.4911 4.02647 57.5623 3.84909 57.5508C3.72525 57.5428 3.43943 57.4656 2.98962 57.3192L1.9541 56.9809V53.0649H1.95477ZM2.56591 53.9155V54.8239L2.97355 54.9568C3.21787 55.0367 3.36982 55.0817 3.42738 55.0911C3.53247 55.1085 3.61481 55.0877 3.67438 55.032C3.73395 54.9756 3.76341 54.8823 3.76341 54.752C3.76341 54.6359 3.73864 54.5338 3.69112 54.4459C3.64292 54.3566 3.58402 54.2935 3.51507 54.2525C3.4468 54.2129 3.24933 54.1391 2.92335 54.033L2.56591 53.9155ZM2.56591 55.4737V56.5183L3.13822 56.705C3.38856 56.7869 3.54921 56.8258 3.62083 56.8218C3.69178 56.8164 3.75136 56.7822 3.79955 56.717C3.84842 56.6526 3.87184 56.5573 3.87184 56.4331C3.87184 56.3048 3.84641 56.1914 3.7942 56.0914C3.74266 55.992 3.67438 55.9128 3.5887 55.8537C3.50369 55.7946 3.32899 55.7221 3.06459 55.6355L2.56591 55.4737ZM5.01781 54.0652L5.62961 54.2646V56.3827C5.62961 56.7123 5.63831 56.9285 5.65304 57.0339C5.67981 57.2152 5.74474 57.3696 5.84782 57.4978C5.95024 57.6247 6.08612 57.7167 6.2548 57.7717C6.39671 57.8187 6.51251 57.8227 6.60354 57.7858C6.69324 57.7489 6.75415 57.6764 6.78695 57.569C6.82042 57.4616 6.83715 57.2125 6.83715 56.8238V54.6601L7.44895 54.8594V56.9158C7.44895 57.4407 7.42218 57.8113 7.3693 58.0282C7.31575 58.245 7.19526 58.3947 7.00918 58.4793C6.82242 58.5639 6.5761 58.5558 6.27019 58.4558C5.95224 58.3518 5.70391 58.2108 5.52586 58.0322C5.34713 57.8543 5.21795 57.6428 5.13829 57.3991C5.0573 57.1541 5.01781 56.7392 5.01781 56.1545V54.0652ZM8.0708 58.9775V55.0615L8.68193 55.2616V59.1768L8.0708 58.9775ZM9.2837 59.3729V55.4905L9.8955 55.6906V58.911L11.425 59.4105V60.0717L9.2837 59.3729ZM11.8661 56.3008L12.9866 56.6667C13.2705 56.7587 13.4847 56.8627 13.6286 56.9769C13.7732 57.0903 13.9057 57.2467 14.0268 57.4448C14.1487 57.6422 14.2444 57.8791 14.3133 58.1544C14.383 58.4303 14.4171 58.7559 14.4171 59.1319C14.4171 59.4702 14.3809 59.7522 14.3087 59.9784C14.2364 60.206 14.1447 60.3738 14.0329 60.4833C13.9218 60.5934 13.7872 60.6592 13.6292 60.6813C13.4713 60.7035 13.2678 60.6746 13.0201 60.5934L11.8668 60.2168V56.3008H11.8661ZM12.4773 57.1621V59.7542L12.9391 59.9046C13.1366 59.969 13.2798 59.9966 13.3689 59.9865C13.4579 59.9771 13.5302 59.9408 13.5864 59.8804C13.644 59.82 13.6902 59.7099 13.7276 59.5508C13.7651 59.3923 13.7839 59.1735 13.7839 58.8942C13.7839 58.6042 13.7651 58.3692 13.7263 58.1886C13.6881 58.0094 13.6286 57.8577 13.5489 57.7361C13.4679 57.6146 13.3702 57.5186 13.2557 57.4515C13.1701 57.4005 13.0034 57.334 12.7557 57.2534L12.4773 57.1621ZM14.9184 61.2123V57.2964L15.5303 57.4965V61.4124L14.9184 61.2123ZM16.132 61.6084V57.6932L16.7271 57.8879L17.9775 60.9109V58.296L18.5484 58.482V62.3973L17.9326 62.1959L16.703 59.242V61.7944L16.132 61.6084ZM20.6054 61.6306V60.9687L21.9328 61.4023V62.9619C21.7996 63.0847 21.6108 63.1646 21.3665 63.2042C21.1202 63.2438 20.8752 63.2223 20.6288 63.1425C20.3283 63.0444 20.0625 62.88 19.8336 62.6497C19.6034 62.4188 19.4213 62.1254 19.2874 61.7716C19.1535 61.4185 19.0866 61.0304 19.0866 60.6108C19.0866 60.1805 19.1542 59.8334 19.2901 59.5723C19.426 59.3104 19.602 59.1392 19.8189 59.0587C20.0364 58.9788 20.2955 58.9875 20.5974 59.0862C20.9608 59.205 21.2513 59.397 21.4696 59.6642C21.6884 59.9308 21.829 60.2637 21.8913 60.6619L21.2848 60.6115C21.2386 60.3953 21.1556 60.2141 21.0345 60.0664C20.9126 59.92 20.7674 59.8193 20.5974 59.7636C20.3363 59.6783 20.1241 59.7159 19.9615 59.8771C19.8002 60.0388 19.7185 60.3383 19.7185 60.7766C19.7185 61.2479 19.8069 61.634 19.9822 61.9367C20.1322 62.1965 20.3357 62.3691 20.592 62.4523C20.7125 62.4919 20.8363 62.502 20.9649 62.4852C21.0947 62.4684 21.2092 62.4248 21.3103 62.3556V61.8615L20.6054 61.6306Z" fill="#003E15"/>
<path fill-rule="evenodd" clip-rule="evenodd" d="M22.2275 19.0765L42.7953 12.3657V15.5345C36.1491 17.4458 29.2686 20.2265 22.2275 22.2485V19.0765Z" fill="white"/>
<path fill-rule="evenodd" clip-rule="evenodd" d="M42.7762 9.20752L22.2266 15.9015V58.6868L42.7755 51.9928L42.7762 9.20752Z" fill="#1D7B33"/>
<path d="M22.9775 59.3804L23.6677 59.1549C23.8417 59.0978 23.9742 59.0884 24.0633 59.126C24.1523 59.1629 24.2333 59.2495 24.3082 59.3831C24.3832 59.5167 24.4421 59.7033 24.4843 59.9423C24.5265 60.182 24.5479 60.4895 24.5479 60.8648C24.5479 61.2031 24.5258 61.5046 24.4809 61.7691C24.4361 62.0342 24.3799 62.2511 24.3109 62.4189C24.242 62.5881 24.1596 62.7244 24.0626 62.8305C23.9655 62.9365 23.8404 63.0144 23.6877 63.0641L22.9775 63.2964V59.3804ZM23.3544 59.9188V62.5109L23.6389 62.4183C23.7607 62.3786 23.8497 62.3303 23.9039 62.2732C23.9588 62.2162 24.003 62.1423 24.0378 62.0524C24.0733 61.9611 24.1014 61.8268 24.1242 61.6482C24.1469 61.4703 24.159 61.2414 24.159 60.9621C24.159 60.6721 24.1476 60.4465 24.1242 60.2874C24.1014 60.1276 24.0646 60.0081 24.0144 59.9282C23.9649 59.8484 23.9046 59.8047 23.8343 59.7973C23.7815 59.792 23.679 59.8134 23.5271 59.8631L23.3544 59.9188ZM24.8698 62.6774V58.7621L26.2588 58.3083V58.9702L25.2467 59.3012V60.1652L26.1878 59.8578V60.5197L25.2467 60.8272V61.8933L26.2943 61.5509V62.2128L24.8698 62.6774ZM27.0948 61.951L26.4241 58.2546L26.8298 58.1223L27.3064 60.8648L27.7615 57.8175L28.1672 57.6853L27.5031 61.8174L27.0948 61.951ZM28.3613 61.5368V57.6215L29.7502 57.1677V57.829L28.7381 58.1599V59.0239L29.6793 58.7165V59.3784L28.7381 59.6859V60.752L29.785 60.4103V61.0715L28.3613 61.5368ZM30.113 60.9648V57.0818L30.4892 56.9589V60.18L31.431 59.8725V60.5338L30.113 60.9648ZM31.6291 58.5352C31.6291 58.0693 31.6693 57.6725 31.7496 57.3449C31.83 57.0173 31.935 56.7575 32.0642 56.5675C32.1948 56.3775 32.3521 56.252 32.5368 56.1916C32.8046 56.1036 33.0228 56.2077 33.1915 56.5031C33.3595 56.7991 33.4445 57.2697 33.4445 57.9182C33.4445 58.5728 33.3548 59.1139 33.1761 59.5409C33.0201 59.9175 32.8066 60.1505 32.5381 60.2377C32.2664 60.3264 32.0529 60.2351 31.8962 59.9638C31.7182 59.6543 31.6291 59.1777 31.6291 58.5352ZM32.018 58.3815C32.018 58.8306 32.0682 59.1522 32.1673 59.3435C32.2671 59.5362 32.3909 59.6073 32.5388 59.559C32.6881 59.5107 32.8113 59.359 32.909 59.1045C33.0067 58.8501 33.0556 58.4916 33.0556 58.029C33.0556 57.5772 33.008 57.257 32.913 57.0724C32.8179 56.8871 32.6941 56.8193 32.5395 56.8689C32.3862 56.9193 32.2604 57.069 32.1633 57.3187C32.0662 57.5691 32.018 57.9229 32.018 58.3815ZM33.7423 59.7785V55.8633L34.3501 55.6646C34.577 55.59 34.725 55.5612 34.7953 55.5753C34.9064 55.5994 34.9981 55.6988 35.0697 55.8727C35.1427 56.0465 35.1788 56.2896 35.1788 56.6011C35.1788 56.8837 35.1467 57.1314 35.0851 57.3436C35.0228 57.5551 34.9445 57.7148 34.8508 57.8229C34.7571 57.9303 34.5958 58.0223 34.3669 58.0968L34.1185 58.1787V59.655L33.7423 59.7785ZM34.1192 56.4024V57.5175L34.3294 57.4483C34.4699 57.4027 34.5663 57.3537 34.6165 57.304C34.6667 57.2536 34.7082 57.1791 34.741 57.0804C34.7738 56.9804 34.7899 56.8669 34.7899 56.738C34.7899 56.6078 34.7738 56.5031 34.7397 56.4238C34.7056 56.346 34.6641 56.299 34.6159 56.2849C34.567 56.2701 34.4633 56.2889 34.3039 56.3413L34.1192 56.4024ZM35.4814 59.2113V55.2953L36.0456 55.1107L36.3857 57.6752L36.7224 54.8898L37.2907 54.7039V58.6191L36.9399 58.7339V55.6458L36.5671 58.8554L36.2056 58.9729L35.8321 56.0069V59.0951L35.4814 59.2113ZM37.6689 58.4963V54.5803L39.0571 54.1265V54.7885L38.0451 55.1188V55.9828L38.9862 55.6753V56.3366L38.0451 56.6447V57.7108L39.0919 57.3684V58.0304L37.6689 58.4963ZM39.4199 57.9236V54.0084L39.7868 53.8889L40.5565 56.2526V53.6378L40.9073 53.523V57.4382L40.5284 57.5624L39.7714 55.2571V57.8095L39.4199 57.9236ZM41.7246 57.1717V53.9177L41.169 54.099V53.4377L42.6563 52.9517V53.6129L42.1001 53.7949V57.0482L41.7246 57.1717Z" fill="#1D7B33"/>
<path fill-rule="evenodd" clip-rule="evenodd" d="M22.2266 25.4088L42.7762 18.7148V21.8856L22.2272 28.5795L22.2266 25.4088Z" fill="white"/>
<path fill-rule="evenodd" clip-rule="evenodd" d="M22.2274 19.0677L1.6784 12.373L1.67773 15.5445L22.2274 22.2384V19.0677Z" fill="white"/>
<path fill-rule="evenodd" clip-rule="evenodd" d="M22.2266 19.0677L42.7762 12.373V15.5445L22.2272 22.2384L22.2266 19.0677Z" fill="white"/>
<path d="M11.4768 36.7306L9.38231 36.0559V34.8925L11.4768 35.5672V36.7306ZM11.365 33.5921L3.21206 30.9658C3.45371 30.2683 3.8821 30.0185 4.49658 30.2166L10.0805 32.0151C10.6949 32.2125 11.1227 32.7381 11.365 33.5921ZM11.4768 38.2821L9.38231 37.6081V36.4439L11.4768 37.1186V38.2821ZM11.4768 35.1791L3.09961 32.481V31.7056C3.09961 31.576 3.10898 31.4492 3.12772 31.3263L11.4487 34.0063C11.4674 34.1419 11.4768 34.2742 11.4768 34.4031V35.1791ZM11.4768 39.8329L9.38231 39.1589V37.9954L11.4768 38.6701V39.8329ZM11.4768 41.385L9.38231 40.7103V39.5469L11.4768 40.2216V41.385ZM11.4768 42.9358L9.38231 42.2618V41.0984L11.4768 41.7731V42.9358ZM5.19407 34.7072L3.09961 34.0332V32.869L5.19407 33.5437V34.7072ZM5.19407 36.258L3.09961 35.584V34.4205L5.19407 35.0952V36.258ZM5.19407 37.8095L3.09961 37.1348V35.9713L5.19407 36.646V37.8095ZM11.4768 44.0993C11.4768 44.2288 11.4667 44.3551 11.4487 44.4786L3.12772 41.7986C3.10898 41.663 3.09961 41.5314 3.09961 41.4018V40.6257L11.4768 43.3239V44.0993ZM5.19407 39.3609L3.09961 38.6869V37.5235L5.19407 38.1975V39.3609ZM11.365 44.8391C11.1227 45.5373 10.6949 45.787 10.0805 45.589L4.49658 43.7898C3.88277 43.5924 3.45438 43.0667 3.21206 42.2128L11.365 44.8391ZM5.19407 40.9124L3.09961 40.2377V39.0743L5.19407 39.7483V40.9124ZM21.0401 39.4234C21.0401 39.5529 21.0307 39.6791 21.0119 39.802L18.9456 39.1367V37.9733L21.0401 38.648V39.4234ZM20.9283 36.6722L12.6629 34.0103V32.8469L19.6437 35.0952C20.2582 35.2933 20.686 35.8183 20.9283 36.6722ZM21.0401 38.2593L12.6629 35.5611V34.3977L21.0119 37.0871C21.0307 37.222 21.0401 37.3543 21.0401 37.4839V38.2593ZM21.0401 44.4652L18.9456 43.7911V42.6277L21.0119 43.293C21.0307 43.4286 21.0401 43.5609 21.0401 43.6898V44.4652ZM20.9283 40.1632C20.6866 40.8614 20.2582 41.1104 19.6437 40.9131L12.6629 38.6641V37.5006L20.9283 40.1632ZM21.0401 46.0166L18.9456 45.3419V44.1785L21.0401 44.8532V46.0166ZM20.9283 42.8781L12.6636 40.2162V39.0521L19.6444 41.3004C20.2582 41.4985 20.686 42.0248 20.9283 42.8781ZM21.0401 47.5681L18.9456 46.8941V45.7306L21.0401 46.4047V47.5681ZM14.758 37.7873L12.6629 37.1133V35.9498L14.758 36.6245V37.7873ZM21.0401 49.1196L18.9456 48.4449V47.2814L21.0401 47.9561V49.1196ZM14.758 42.4417L12.6629 41.767V40.6036L14.758 41.2776V42.4417ZM14.758 43.9932L12.6629 43.3192V42.1557L14.758 42.8298V43.9932ZM14.758 45.5447L12.6629 44.87V43.7065L14.758 44.3806V45.5447ZM14.758 47.0955L12.6629 46.4214V45.258L14.758 45.9327V47.0955Z" fill="white"/>
<path d="M40.4891 43.7896L37.7119 44.6697V43.5217L40.4891 42.6416V43.7896Z" fill="white"/>
<path d="M40.4891 42.2584L37.7119 43.1385V41.9898L40.4891 41.1104V42.2584Z" fill="white"/>
<path d="M40.4891 40.7276L37.7119 41.6077V40.459L40.4891 39.5796V40.7276Z" fill="white"/>
<path d="M40.4891 39.1963L37.7119 40.0765V38.9278L40.4891 38.0483V39.1963Z" fill="white"/>
<path d="M40.4891 37.6648L37.7119 38.5449V37.3962L40.4891 36.5161V37.6648Z" fill="white"/>
<path d="M40.4891 36.1338L37.7119 37.014V35.866L40.4891 34.9858V36.1338Z" fill="white"/>
<path d="M40.4891 34.6028L37.7119 35.4822V34.3342L40.4891 33.4541V34.6028Z" fill="white"/>
<path d="M40.4891 33.0715L37.7119 33.9516V32.803L40.4891 31.9229V33.0715Z" fill="white"/>
<path d="M40.4891 31.5406L37.7119 32.4207V31.272L40.4891 30.3926V31.5406Z" fill="white"/>
<path d="M26.6506 45.1122L23.874 45.9917V44.8437L26.6506 43.9629V45.1122Z" fill="white"/>
<path d="M34.8329 44.4336C34.5123 45.301 33.944 45.8636 33.1301 46.122L23.874 49.0544V47.9058L34.8329 44.4336Z" fill="white"/>
<path d="M26.6506 43.5808L23.874 44.4603V43.3123L26.6506 42.4321V43.5808Z" fill="white"/>
<path d="M34.9815 43.6213C34.9815 43.7488 34.9695 43.8804 34.9447 44.016L23.874 47.5231V46.3751L34.9815 42.856V43.6213Z" fill="white"/>
<path d="M26.6506 38.9875L23.874 39.867V38.7183L26.6506 37.8389V38.9875Z" fill="white"/>
<path d="M34.8329 39.4565L23.874 42.9287V41.7807L33.1301 38.8483C33.944 38.5898 34.5123 38.7932 34.8329 39.4565Z" fill="white"/>
<path d="M34.9816 42.4727L32.2051 43.3528V42.2042L34.9816 41.3247V42.4727Z" fill="white"/>
<path d="M34.8329 36.7773C34.5123 37.6447 33.944 38.2073 33.1301 38.4658L23.874 41.3982V40.2495L34.8329 36.7773Z" fill="white"/>
<path d="M34.9816 40.9413L32.2051 41.8214V40.6727L34.9448 39.8047C34.9696 39.9249 34.9816 40.0484 34.9816 40.1759V40.9413Z" fill="white"/>
<path d="M34.9815 34.8165L23.874 38.3356V37.187L34.9447 33.6792C34.9695 33.7994 34.9815 33.9229 34.9815 34.0505V34.8165Z" fill="white"/>
<path d="M34.8329 33.3321L23.874 36.8043V35.6556L33.1301 32.7225C33.944 32.4654 34.5123 32.6682 34.8329 33.3321Z" fill="white"/>
<path d="M34.9816 35.9652C34.9816 36.0928 34.9696 36.2244 34.9448 36.36L32.2051 37.228V36.0794L34.9816 35.1992V35.9652Z" fill="white"/>
<path d="M68.3107 11.7749C74.6403 11.7749 77.8051 16.0708 77.8051 20.9978C77.8051 25.9248 74.6403 30.2207 68.3107 30.2207C61.9812 30.2207 58.8164 25.9248 58.8164 20.9978C58.8164 16.0708 61.9812 11.7749 68.3107 11.7749ZM68.3107 16.0708C65.247 16.0708 63.6265 18.1681 63.6265 20.9985C63.6265 23.8289 65.247 25.9261 68.3107 25.9261C71.3744 25.9261 72.9943 23.8289 72.9943 20.9985C72.9943 18.1681 71.3744 16.0708 68.3107 16.0708Z" fill="white"/>
<path d="M80.2607 29.8422V12.1543H87.7296C91.3247 12.1543 94.9962 13.4433 94.9962 18.1178C94.9962 21.0489 93.5531 22.6407 91.6032 23.4241L96.4896 29.8422H91.1982L86.9698 24.0807H84.9443V29.8422H80.2607ZM84.945 20.291H87.9324C89.2745 20.291 90.1855 19.6089 90.1855 18.244C90.1855 16.8792 89.2738 16.1971 87.9324 16.1971H84.945V20.291Z" fill="white"/>
<path d="M106.262 12.1543C110.135 12.1543 112.465 13.5695 112.465 16.6268C112.465 18.5723 111.528 19.8613 109.831 20.4675C111.73 21.0234 113.174 22.3882 113.174 24.8393C113.174 28.8573 109.325 29.8428 105.958 29.8428H98.2607V12.1543H106.262ZM106.11 22.4889H102.92V26.178H106.11C107.527 26.178 108.465 25.7228 108.465 24.3331C108.465 22.9441 107.528 22.4889 106.11 22.4889ZM105.831 15.8185H102.945V19.0779L105.831 19.1034C107.072 19.1034 107.781 18.4716 107.781 17.4613C107.781 16.4502 107.072 15.8185 105.831 15.8185Z" fill="white"/>
<path d="M120.262 12.1543V29.8422H115.578V12.1543H120.262Z" fill="white"/>
<path d="M69.8929 37.6821C71.7919 37.6821 73.7157 38.0863 75.3871 38.7939V43.216C74.0704 42.3063 72.2732 41.8008 70.5007 41.8008C67.6398 41.8008 64.9309 43.2664 64.9309 46.905C64.9309 51.2768 68.1465 52.1106 70.172 52.1106C70.6781 52.1106 71.0837 52.0603 71.3869 51.9844V46.0209H75.8175V54.941C73.9948 55.6989 71.9439 56.1286 69.9438 56.1286C64.9054 56.1286 60.1201 53.3237 60.1201 46.9057C60.1201 40.3104 64.9556 37.6821 69.8929 37.6821Z" fill="white"/>
<path d="M78.6777 55.7494V38.0615H86.1466C89.7417 38.0615 93.4132 39.3505 93.4132 44.0251C93.4132 46.9561 91.9701 48.5479 90.0202 49.3313L94.9066 55.7494H89.6152L85.3868 49.9879H83.3613V55.7494H78.6777ZM83.362 46.1982H86.3494C87.6915 46.1982 88.6025 45.5161 88.6025 44.1513C88.6025 42.7864 87.6908 42.1043 86.3494 42.1043H83.362V46.1982Z" fill="white"/>
<path d="M104.984 37.6821C111.313 37.6821 114.478 41.9781 114.478 46.905C114.478 51.832 111.313 56.1279 104.984 56.1279C98.654 56.1279 95.4893 51.832 95.4893 46.905C95.4893 41.9781 98.654 37.6821 104.984 37.6821ZM104.984 41.9781C101.92 41.9781 100.299 44.0753 100.299 46.9057C100.299 49.7361 101.92 51.8334 104.984 51.8334C108.047 51.8334 109.667 49.7361 109.667 46.9057C109.668 44.0753 108.047 41.9781 104.984 41.9781Z" fill="white"/>
<path d="M132.707 38.0615V49.0031C132.707 54.3349 128.656 56.1287 124.731 56.1287C120.807 56.1287 116.756 54.3349 116.756 49.0031V38.0615H121.439V48.75C121.439 51.1252 122.731 51.959 124.731 51.959C126.731 51.959 128.022 51.1252 128.022 48.75V38.0615H132.707Z" fill="white"/>
<path d="M142.885 38.0615C147.265 38.0615 150.607 39.4767 150.607 44.1258C150.607 48.7755 147.264 50.1652 142.885 50.19H140.555V55.7494H135.871V38.0615H142.885ZM143.112 42.1043H140.555V46.1472H143.112C144.53 46.1472 145.796 45.7175 145.796 44.1258C145.796 42.534 144.53 42.1043 143.112 42.1043Z" fill="white"/>
</svg>
