<svg width="30" height="30" viewBox="0 0 30 30" fill="none" xmlns="http://www.w3.org/2000/svg">
<circle cx="15" cy="15" r="15" fill="#E1BA80"/>
<path fill-rule="evenodd" clip-rule="evenodd" d="M19.9435 9.90318V10.6898C19.9435 11.6585 18.5382 13.9688 17.9362 14.9588C17.7922 15.1954 17.6942 15.3566 17.6722 15.406C17.694 15.4547 17.7907 15.6136 17.9329 15.8471C18.5332 16.8329 19.9435 19.1488 19.9435 20.1208V20.9056H20.689V22.4077H10.2451V20.9056H10.9911V20.1208C10.9911 19.1585 12.3849 16.8506 12.9837 15.8592C13.1297 15.6173 13.2285 15.4538 13.2481 15.4074C13.2285 15.362 13.1332 15.2042 12.9919 14.9704C12.3978 13.9872 10.9911 11.6595 10.9911 10.6898V9.90318H10.2451V8.40283H20.689V9.90318H19.9435ZM19.197 20.9056V20.1208C19.197 19.6144 18.4052 18.2295 17.7499 17.0833C17.2873 16.2742 16.8927 15.584 16.8925 15.4055C16.8925 15.2257 17.2889 14.5321 17.7529 13.7204C18.4075 12.5752 19.1965 11.1948 19.1965 10.6898V9.90318H11.7367V10.6902C11.7367 11.1953 12.5196 12.5757 13.169 13.7209C13.6294 14.5326 14.0227 15.2261 14.0227 15.406C14.0227 15.5843 13.6311 16.2747 13.1721 17.084C12.522 18.23 11.7367 19.6144 11.7367 20.1208V20.9056H19.197ZM12.8662 19.3559C13.5048 17.5243 15.142 15.9304 15.142 15.9304H15.7922C15.7922 15.9304 17.2377 17.3335 18.0681 19.3559V19.8554H12.8662V19.3559Z" fill="white"/>
</svg>
